<svg width="714" height="103" viewBox="0 0 714 103" xmlns="http://www.w3.org/2000/svg">
  <g fill="#3DDB93" fill-rule="evenodd">
    <path d="M441.05 29.37c-16.79 0-23.33 4.52-23.33 9.71a9.86 9.86 0 0 0 2.91 7c2.21-1.42 8.47-5 18.55-5 12.69 0 17.16 6 17.16 12.49v1.95c-29.37 3.1-44.43 8.64-44.43 26.21 0 12 9 21 21.65 21 12.65 0 19.9-6.62 23.1-9.54v8.06h12.82V53.12c-.01-15.65-11.31-23.75-28.43-23.75zm15.24 52.55c-5.9 6.05-11.89 9.11-19.57 9.11-7.45 0-11.36-4.76-11.36-9.75 0-7.23 5.77-13.31 30.92-15.74l.01 16.38zm215.29-52.55c-16.79 0-23.29 4.52-23.29 9.71a9.86 9.86 0 0 0 2.91 7c2.21-1.42 8.47-5 18.55-5 12.69 0 17.16 6 17.16 12.49v1.95c-29.37 3.1-44.43 8.64-44.43 26.21 0 12 9 21 21.65 21 12.65 0 19.9-6.62 23.1-9.54v8.06h12.82V53.12c-.05-15.65-11.35-23.75-28.47-23.75zm15.29 52.55c-5.9 6.05-11.89 9.11-19.57 9.11-7.45 0-11.36-4.76-11.36-9.75 0-7.23 5.77-13.31 30.92-15.74l.01 16.38zM257.48 16.68a8.38 8.38 0 0 1-8.41-8.27 8.51 8.51 0 0 1 8.41-8.43 8.38 8.38 0 0 1 8.27 8.41 8.25 8.25 0 0 1-8.27 8.29zm-6.64 84.58V30.85h13.14v70.41h-13.14zM119.39 71.8c19.55 0 45.43-3 45.43-23.61 0-10.32-8.61-18.82-23.06-18.82-24.39 0-36.13 17.14-36.13 37.78 0 19.8 12.78 35.58 35.58 35.58 12.69 0 22.17-3.45 22.17-10.66a10.38 10.38 0 0 0-2.66-6.55A33.63 33.63 0 0 1 142 90.98c-14.93 0-21.09-9.63-22.61-19.18zm-.1-10.19c.57-10.36 7.27-21 21.81-21 6.5 0 10.4 3.71 10.4 8.2.01 10.06-18.32 12.8-32.21 12.8zm115.5 37.56a80.8 80.8 0 0 1-23.5 3.58c-27.1 0-37.56-15.12-37.56-35.44 0-25.68 14.61-38 31.15-38a37.89 37.89 0 0 1 17 3.71V1.66h13l-.09 97.51zm-12.97-54.19a30.12 30.12 0 0 0-14.61-3.94c-12.14 0-20.47 8.43-20.47 25.84 0 15.5 7.79 24.07 24.51 24.07a37.38 37.38 0 0 0 10.57-1.51V44.98zm-208.08 21c0-16.38 8.54-24.9 21.46-24.9a34.06 34.06 0 0 1 18.29 5 10 10 0 0 0 2.9-7c0-4.66-5.51-9.71-21.72-9.71C15.77 29.37 0 42.06 0 66.12c0 23.47 14.33 36.61 33.22 36.61a54.83 54.83 0 0 0 23-5V84.69c-2.88 2-12.15 6.33-20.85 6.33-12.38-.04-21.63-8.49-21.63-25.04zm371.65-.65a113.33 113.33 0 0 0 21.45-35l-12.14-4.45c-7.74 20.34-19.32 34-33.29 45.32V1.66h-13.12v99.6h13.14v-14.7a144.55 144.55 0 0 0 14.52-11.79l12 20.29c3 5 7 7.68 13 7.68a12.15 12.15 0 0 0 6.09-1.47l-21.65-35.94zM80.52 39.81c0-6.92-3.89-10.43-9.15-10.43a10.86 10.86 0 0 0-3.77.7v71.18h13.14V59.63c3.73-8.84 12.55-17 24.21-17V29.37c-12.46 0-19.59 6-24.43 15v-4.56zm418 0c0-6.92-3.89-10.43-9.15-10.43a10.86 10.86 0 0 0-3.77.7v71.18h13.19V59.63c3.73-8.84 12.55-17 24.21-17V29.37c-12.46 0-19.59 6-24.43 15l-.05-4.56zm45.9.29v-.29c0-6.92-3.67-10.43-8.92-10.43a10.86 10.86 0 0 0-3.77.7v71.18h13.14V52.55c3.91-5.29 11.82-11.47 18.75-11.47 7.68 0 11.51 5 11.51 12.2v48h13.16V52.55c4.53-6.12 11.82-11.47 18.75-11.47 7.68 0 11.51 5 11.51 12.2v48h13.14V52.55c0-13.26-6-23.18-22.24-23.18-9.89 0-17.2 5.3-23.13 11.77-2-4.74-6.47-11.77-20.31-11.77-9.36 0-16.26 4.98-21.55 10.73h-.04zM280.16 13.88v68.17c0 13.52 8.42 20.68 20.82 20.68a43.82 43.82 0 0 0 12.41-1.94V89.62a32.64 32.64 0 0 1-9.52 1.4c-7.25 0-10.57-4.52-10.57-10.46V41.92h18.24V30.85h-18.25v-7.23c0-6.92-4.12-10.43-9.38-10.43-1.28.007-2.55.24-3.75.69z" fill-rule="nonzero"/>
    <text font-family="Helvetica" font-size="31.39" transform="translate(0 -1)">
      <tspan x="690.96" y="36.98">®</tspan>
    </text>
  </g>
</svg>