<?xml version="1.0" encoding="UTF-8"?>
<svg width="32px" height="32px" viewBox="0 0 32 32" version="1.1" xmlns="http://www.w3.org/2000/svg" xmlns:xlink="http://www.w3.org/1999/xlink">
    <title>arrows-diagrams-15</title>
    <g id="Page-1" stroke="none" stroke-width="1" fill="none" fill-rule="evenodd">
        <g id="Pricing-Final" transform="translate(-1063.000000, -4785.000000)">
            <g id="Group-5-Copy" transform="translate(315.000000, 4610.000000)">
                <g id="Group-6-Copy" transform="translate(1.000000, 156.000000)">
                    <g id="arrows-diagrams-15" transform="translate(747.000000, 19.000000)">
                        <g id="Group" stroke-linecap="round" stroke-linejoin="round" transform="translate(3.900000, 3.900000)" stroke="#1BA3FE" stroke-width="1.95000011">
                            <path d="M11.7000006,23.4000013 L11.7000006,23.4000013 C5.23770029,23.4000013 0,18.162301 0,11.7000006 L0,11.7000006 C0,5.23770029 5.23770029,0 11.7000006,0 L11.7000006,0 C18.162301,0 23.4000013,5.23770029 23.4000013,11.7000006 L23.4000013,11.7000006 C23.4000013,18.162301 18.162301,23.4000013 11.7000006,23.4000013 Z" id="Path"></path>
                            <line x1="16.9000009" y1="11.7000006" x2="6.50000036" y2="11.7000006" id="Path"></line>
                            <polyline id="Path" points="13.0000007 7.80000043 16.9000009 11.7000006 13.0000007 15.6000009"></polyline>
                        </g>
                        <polygon id="Path" points="0 0 31.2000017 0 31.2000017 31.2000017 0 31.2000017"></polygon>
                    </g>
                </g>
            </g>
        </g>
    </g>
</svg>