<?xml version="1.0" encoding="UTF-8"?>
<svg width="67px" height="67px" viewBox="0 0 67 67" version="1.1" xmlns="http://www.w3.org/2000/svg" xmlns:xlink="http://www.w3.org/1999/xlink">
    <title>Group 10</title>
    <g id="Page-1" stroke="none" stroke-width="1" fill="none" fill-rule="evenodd">
        <g id="Copilot" transform="translate(-927.000000, -2496.000000)">
            <g id="Group-38" transform="translate(220.000000, 1072.000000)">
                <g id="Group-21" transform="translate(2.000000, 1420.000000)">
                    <g id="Group-10" transform="translate(705.000000, 4.000000)">
                        <circle id="Oval" fill="#E3FFEC" cx="33.5" cy="33.5" r="33.5"></circle>
                        <g id="light-bulb" transform="translate(17.000000, 17.000000)">
                            <g id="Group" transform="translate(1.860083, 3.976583)" stroke="#00C25A" stroke-linecap="round" stroke-linejoin="round" stroke-width="2.1">
                                <line x1="19.3899167" y1="17.544" x2="10.8899167" y2="17.544" id="Path"></line>
                                <path d="M10.2396667,17.1260833 C7.72366667,15.3481667 6.21491667,12.24425 6.74616667,8.82725 C7.32133333,5.134 10.39975,2.18591667 14.1128333,1.751 C19.2666667,1.14608333 23.6399167,5.15808333 23.6399167,10.1900833 C23.6399167,13.0588333 22.21475,15.5904167 20.0373333,17.1289167 C19.6463333,17.4051667 19.3899167,17.833 19.3899167,18.3118333 L19.3899167,22.23175 C19.3899167,24.1881667 17.8046667,25.7734167 15.84825,25.7734167 L14.4315833,25.7734167 C12.4751667,25.7734167 10.8899167,24.1881667 10.8899167,22.23175 L10.8899167,18.3175 C10.8899167,17.8344167 10.6320833,17.40375 10.2396667,17.1260833 Z" id="Path"></path>
                                <line x1="26.47325" y1="3.10675" x2="28.1633333" y2="1.41666667" id="Path"></line>
                                <line x1="3.80658333" y1="17.2734167" x2="2.1165" y2="18.9635" id="Path"></line>
                                <line x1="5.22325" y1="1.69008333" x2="3.53316667" y2="-6.29126381e-16" id="Path"></line>
                                <line x1="26.47325" y1="17.2734167" x2="28.1633333" y2="18.9635" id="Path"></line>
                                <line x1="27.8899167" y1="10.1900833" x2="30.2798333" y2="10.1900833" id="Path"></line>
                                <line x1="-9.43689571e-16" y1="10.1900833" x2="2.38991667" y2="10.1915" id="Path"></line>
                                <line x1="10.8899167" y1="21.5234167" x2="19.21" y2="21.5234167" id="Path"></line>
                            </g>
                            <polygon id="Path" points="0 0 34 0 34 34 0 34"></polygon>
                        </g>
                    </g>
                </g>
            </g>
        </g>
    </g>
</svg>