<?xml version="1.0" encoding="UTF-8"?>
<svg width="16px" height="16px" viewBox="0 0 16 16" version="1.1" xmlns="http://www.w3.org/2000/svg" xmlns:xlink="http://www.w3.org/1999/xlink">
    <!-- Generator: Sketch 63.1 (92452) - https://sketch.com -->
    <title>close</title>
    <desc>Created with Sketch.</desc>
    <g id="Page-1" stroke="none" stroke-width="1" fill="none" fill-rule="evenodd" opacity="0.200000003">
        <g id="Lead-Capture" transform="translate(-976.000000, -125.000000)" fill="#000000" fill-rule="nonzero">
            <g id="close" transform="translate(976.000000, 125.000000)">
                <path d="M8.88391929,8.00003516 L15.8169302,1.06697604 C16.0610233,0.822882411 16.0610233,0.427132604 15.8169302,0.183070223 C15.5728372,-0.0609921577 15.1770883,-0.0610234077 14.9330266,0.183070223 L7.99998438,7.11612934 L1.06697344,0.183070223 C0.822880402,-0.0610234077 0.427131561,-0.0610234077 0.183069776,0.183070223 C-0.0609920088,0.427163854 -0.0610232587,0.822913661 0.183069776,1.06697604 L7.11608071,8 L0.183069776,14.933063 C-0.0610232587,15.1771567 -0.0610232587,15.5729065 0.183069776,15.8169688 C0.305100669,15.939 0.46506895,16 0.625037231,16 C0.785005513,16 0.944942544,15.939 1.06700469,15.8169688 L7.99998438,8.88394097 L14.9329953,15.8169688 C15.0550262,15.939 15.2149945,16 15.3749628,16 C15.5349311,16 15.6948681,15.939 15.8169302,15.8169688 C16.0610233,15.5728752 16.0610233,15.1771254 15.8169302,14.933063 L8.88391929,8.00003516 Z" id="Path"></path>
            </g>
        </g>
    </g>
</svg>