<?xml version="1.0" encoding="UTF-8"?>
<svg width="39px" height="39px" viewBox="0 0 39 39" version="1.1" xmlns="http://www.w3.org/2000/svg" xmlns:xlink="http://www.w3.org/1999/xlink">
    <title>content-15</title>
    <g id="Page-1" stroke="none" stroke-width="1" fill="none" fill-rule="evenodd">
        <g id="Homepage-v1" transform="translate(-1007.000000, -3283.000000)">
            <g id="Group-43" transform="translate(319.000000, 3271.000000)">
                <g id="Group-41-Copy-2" transform="translate(579.000000, 0.000000)">
                    <g id="Group-40" transform="translate(97.000000, 0.000000)">
                        <g id="content-15" transform="translate(12.000000, 12.000000)">
                            <g id="Group" stroke-linecap="round" stroke-linejoin="round" transform="translate(6.400000, 4.800000)" stroke="#5B7FFF" stroke-width="2.40000004">
                                <line x1="4.80000007" y1="11.7920002" x2="17.6000003" y2="11.7920002" id="Path"></line>
                                <line x1="4.80000007" y1="6.4640001" x2="17.6000003" y2="6.4640001" id="Path"></line>
                                <line x1="4.88000007" y1="17.3920003" x2="11.2000002" y2="17.3920003" id="Path"></line>
                                <path d="M4.80000007,27.2000004 L3.20000005,27.2000004 C1.43200002,27.2000004 0,25.7680004 0,24 L0,3.20000005 C0,1.43200002 1.43200002,0 3.20000005,0 L20.8000003,0 C22.5680003,0 24,1.43200002 24,3.20000005 L24,16" id="Path"></path>
                                <path d="M16.8576003,27.8288004 C15.5632002,29.1232004 13.4656002,29.1232004 12.1712002,27.8288004 C10.8768002,26.5344004 10.8768002,24.4368004 12.1712002,23.1424003 C13.4656002,21.8480003 15.5632002,21.8480003 16.8576003,23.1424003" id="Path"></path>
                                <line x1="16.8640003" y1="23.1360003" x2="19.2000003" y2="25.4880004" id="Path"></line>
                                <line x1="16.8640003" y1="27.8240004" x2="19.2000003" y2="25.4880004" id="Path"></line>
                                <path d="M21.5424003,23.1424003 C22.8368003,21.8480003 24.9344004,21.8480003 26.2288004,23.1424003 C27.5232004,24.4368004 27.5232004,26.5344004 26.2288004,27.8288004 C24.9344004,29.1232004 22.8368003,29.1232004 21.5424003,27.8288004" id="Path"></path>
                                <line x1="21.5360003" y1="27.8240004" x2="19.2000003" y2="25.4880004" id="Path"></line>
                                <line x1="21.5360003" y1="23.1360003" x2="19.2000003" y2="25.4880004" id="Path"></line>
                            </g>
                            <polygon id="Path" points="0 0 38.4000006 0 38.4000006 38.4000006 0 38.4000006"></polygon>
                        </g>
                    </g>
                </g>
            </g>
        </g>
    </g>
</svg>