<?xml version="1.0" encoding="UTF-8"?>
<svg width="39px" height="39px" viewBox="0 0 39 39" version="1.1" xmlns="http://www.w3.org/2000/svg" xmlns:xlink="http://www.w3.org/1999/xlink">
    <title>document-content.15</title>
    <g id="Page-1" stroke="none" stroke-width="1" fill="none" fill-rule="evenodd">
        <g id="Homepage-v1" transform="translate(-700.000000, -3282.000000)">
            <g id="Group-43" transform="translate(319.000000, 3271.000000)">
                <g id="Group-41-Copy" transform="translate(273.000000, 0.000000)">
                    <g id="Group-39" transform="translate(97.000000, 0.000000)">
                        <g id="document-content.15" transform="translate(11.000000, 11.000000)">
                            <polygon id="Path" points="0 0 38.4000006 0 38.4000006 38.4000006 0 38.4000006"></polygon>
                            <path d="M33.6000005,8.00000012 L33.6000005,8.00000012 C33.6000005,6.23200009 32.1680005,4.80000007 30.4000005,4.80000007 L30.4000005,4.80000007" id="Path" stroke="#5B7FFF" stroke-width="2.40000004" stroke-linecap="round" stroke-linejoin="round"></path>
                            <line x1="33.6000005" y1="19.2000003" x2="33.6000005" y2="20.8000003" id="Path" stroke="#5B7FFF" stroke-width="2.40000004" stroke-linecap="round" stroke-linejoin="round"></line>
                            <line x1="33.6000005" y1="12.8000002" x2="33.6000005" y2="14.4000002" id="Path" stroke="#5B7FFF" stroke-width="2.40000004" stroke-linecap="round" stroke-linejoin="round"></line>
                            <path d="M33.6000005,25.6000004 L33.6000005,25.6000004 C33.6000005,27.3680004 32.1680005,28.8000004 30.4000005,28.8000004 L30.4000005,28.8000004" id="Path" stroke="#5B7FFF" stroke-width="2.40000004" stroke-linecap="round" stroke-linejoin="round"></path>
                            <path d="M12.8000002,4.80000007 L12.8000002,4.80000007 C11.0320002,4.80000007 9.60000014,6.23200009 9.60000014,8.00000012 L9.60000014,8.00000012" id="Path" stroke="#5B7FFF" stroke-width="2.40000004" stroke-linecap="round" stroke-linejoin="round"></path>
                            <line x1="24.0000004" y1="4.80000007" x2="25.6000004" y2="4.80000007" id="Path" stroke="#5B7FFF" stroke-width="2.40000004" stroke-linecap="round" stroke-linejoin="round"></line>
                            <line x1="17.6000003" y1="4.80000007" x2="19.2000003" y2="4.80000007" id="Path" stroke="#5B7FFF" stroke-width="2.40000004" stroke-linecap="round" stroke-linejoin="round"></line>
                            <path d="M22.4000003,33.6000005 L8.00000012,33.6000005 C6.23200009,33.6000005 4.80000007,32.1680005 4.80000007,30.4000005 L4.80000007,16.0000002 C4.80000007,14.2320002 6.23200009,12.8000002 8.00000012,12.8000002 L22.4000003,12.8000002 C24.1680004,12.8000002 25.6000004,14.2320002 25.6000004,16.0000002 L25.6000004,30.4000005 C25.6000004,32.1680005 24.1680004,33.6000005 22.4000003,33.6000005 Z" id="Path" stroke="#5B7FFF" stroke-width="2.40000004" stroke-linecap="round" stroke-linejoin="round"></path>
                            <line x1="9.60000014" y1="18.4000003" x2="20.8000003" y2="18.4000003" id="Path" stroke="#5B7FFF" stroke-width="2.40000004" stroke-linecap="round" stroke-linejoin="round"></line>
                            <line x1="9.60000014" y1="28.0000004" x2="20.8000003" y2="28.0000004" id="Path" stroke="#5B7FFF" stroke-width="2.40000004" stroke-linecap="round" stroke-linejoin="round"></line>
                            <line x1="9.60000014" y1="23.2000003" x2="20.8000003" y2="23.2000003" id="Path" stroke="#5B7FFF" stroke-width="2.40000004" stroke-linecap="round" stroke-linejoin="round"></line>
                        </g>
                    </g>
                </g>
            </g>
        </g>
    </g>
</svg>