<?xml version="1.0" encoding="UTF-8"?>
<svg width="125px" height="91px" viewBox="0 0 125 91" version="1.1" xmlns="http://www.w3.org/2000/svg" xmlns:xlink="http://www.w3.org/1999/xlink">
    <title>Group 36 Copy 2</title>
    <defs>
        <linearGradient x1="100%" y1="1.00408837%" x2="11.9075181%" y2="87.9025403%" id="linearGradient-1">
            <stop stop-color="#FFFFFF" offset="0%"></stop>
            <stop stop-color="#9FCFF3" offset="100%"></stop>
        </linearGradient>
        <linearGradient x1="87.61041%" y1="0%" x2="21.3465228%" y2="88.6792888%" id="linearGradient-2">
            <stop stop-color="#FFFFFF" offset="0%"></stop>
            <stop stop-color="#9FCFF3" offset="100%"></stop>
        </linearGradient>
    </defs>
    <g id="Page-1" stroke="none" stroke-width="1" fill="none" fill-rule="evenodd">
        <g id="Page-option-2" transform="translate(-998.000000, -780.000000)">
            <g id="Group-7" transform="translate(245.000000, 654.000000)">
                <g id="Group-5" transform="translate(0.000000, 126.000000)">
                    <g id="Group-3" transform="translate(680.000000, 0.000000)">
                        <g id="Group-36-Copy-2" transform="translate(73.000000, 0.000000)">
                            <rect id="Rectangle" fill="#FFFFFF" x="0" y="0" width="125" height="91" rx="15"></rect>
                            <g id="chart" transform="translate(6.000000, 11.000000)">
                                <path d="M7.69689332,53.8706024 C3.45262141,53.8706024 0,57.3233403 0,61.5674957 C0,65.8116511 3.45262141,69.264389 7.69689332,69.264389 C11.9411652,69.264389 15.3937866,65.8117676 15.3937866,61.5674957 C15.3937866,57.3232238 11.9410487,53.8706024 7.69689332,53.8706024 Z M7.69689341,66.4158843 C5.02302888,66.4158843 2.84850491,64.2413603 2.84850491,61.5674958 C2.84850491,58.8936312 5.02302888,56.7191073 7.69689341,56.7191073 C10.3707579,56.7191073 12.5452819,58.8936312 12.5452819,61.5674958 C12.5452819,64.2413603 10.3707579,66.4158843 7.69689341,66.4158843 Z" id="Shape" fill="#0A1F44" fill-rule="nonzero"></path>
                                <path d="M20.5248935,32.0629904 C16.2807381,32.0629904 12.8280002,35.5156118 12.8280002,39.7598837 C12.8280002,44.0041556 16.2806216,47.456777 20.5248935,47.456777 C24.7691654,47.456777 28.2217868,44.0041556 28.2217868,39.7598837 C28.2217868,35.5156118 24.7690489,32.0629904 20.5248935,32.0629904 Z M20.5248936,44.6081558 C17.8510291,44.6081558 15.6765051,42.4336318 15.6765051,39.7597673 C15.6765051,37.0859028 17.8510291,34.9113788 20.5248936,34.9113788 C23.1987581,34.9113788 25.3732821,37.0859028 25.3732821,39.7597673 C25.3732821,42.4336318 23.1987581,44.6081558 20.5248936,44.6081558 Z" id="Shape" fill="#0A1F44" fill-rule="nonzero"></path>
                                <path d="M39.766952,50.6636897 C35.5227966,50.6636897 32.0700587,54.1163111 32.0700587,58.360583 C32.0700587,62.6047384 35.5226801,66.0574763 39.766952,66.0574763 C44.011224,66.0574763 47.4638454,62.6048549 47.4638454,58.360583 C47.4638454,54.1163111 44.0111075,50.6636897 39.766952,50.6636897 Z M39.7669521,63.2088551 C37.0930876,63.2088551 34.9185636,61.0343311 34.9185636,58.3604666 C34.9185636,55.6866021 37.0930876,53.5120781 39.7669521,53.5120781 C42.4408167,53.5120781 44.6153406,55.6866021 44.6153406,58.3604666 C44.6154874,61.0343311 42.4409635,63.2088551 39.7669521,63.2088551 Z" id="Shape" fill="#0A1F44" fill-rule="nonzero"></path>
                                <polygon id="Path-13" fill="url(#linearGradient-1)" points="62 1.24905861 72.4485135 3.74755423 82 14.4205852 84.1693847 23 82.7113479 29.2167151 80.0989674 35 74.1726907 40.5013933 68.8467568 43.6341284 61.9997297 44.6081558 53.3062162 43 47.4638454 38.5316491 43.3699195 34.0804054 40.368255 24.8832778 41.0337293 17.5014212 43.3699195 12.5112698 46.5927852 7.65411678 50.1979788 4.69978892 55.9720216 2.42354523"></polygon>
                                <path d="M62,0 C49.3175358,0 39,10.3171876 39,23 C39,35.6828124 49.3171876,46 62,46 C74.6828124,46 85,35.6821161 85,22.9996519 C85,10.3171876 74.6828124,0 62,0 Z M62,43 C50.9700896,43 42,34.0299104 42,23 C42,11.9700896 50.9700896,3 62,3 C73.0299104,3 82,11.9700896 82,23 C82,34.0299104 73.0305159,43 62,43 Z" id="Shape" fill="#0A1F44" fill-rule="nonzero"></path>
                                <g id="happiness" transform="translate(51.000000, 16.000000)" fill="#0A1F44" fill-rule="nonzero">
                                    <circle id="Oval" cx="4.46837838" cy="2.54027027" r="2.16216216"></circle>
                                    <circle id="Oval" cx="17.8467568" cy="2.54027027" r="2.16216216"></circle>
                                    <path d="M10.9614865,18.0804054 C15.1444595,18.0804054 19.1532432,15.9412162 21.4485135,12.3894595 L19.6324324,11.2159459 C17.5247297,14.4774324 13.6694595,16.2975676 9.80905405,15.8521622 C6.80067568,15.5052703 4.01864865,13.772027 2.36689189,11.2159459 L0.550945946,12.3894595 C2.54959459,15.4825676 5.91797297,17.5798649 9.56121622,18.0001351 C10.0289189,18.0540541 10.4959459,18.0804054 10.9614865,18.0804054 Z" id="Path"></path>
                                </g>
                                <g id="like" transform="translate(88.000000, 3.000000)">
                                    <polygon id="Path-14" fill="url(#linearGradient-2)" points="0.822397057 25.1735447 1.72766885 21.2491635 0.822397057 15.5402703 1.27503295 13 3.6544128 13 6.25672189 11.8327402 7.80307763 9.39428593 10.4902194 7.52022052 12.3972107 4.4023304 13.0116943 1.69978892 14.4951723 0.563169131 16.2185532 1.69978892 17.3508172 4.4023304 17.3508172 6.02383469 16.2185532 8.29184894 16.2185532 10.1124582 18.9955633 11.0831915 22.1847284 11.0831915 24.2957198 11.8327402 24.8939498 14.5 24.2957198 16.3517247 24.8939498 18.6367829 23.4982785 20.5011642 24.2957198 22.5 22.1847284 25.1735447 20.0801816 27.6481757 16.2185532 28.3177756 12.3972107 28.3177756 7.80307763 27.3030535 5.12794417 26.2751481 2.30018943 26.2751481"></polygon>
                                    <path d="M19.4871664,29.0021786 C19.48606,29.0021786 17.1587521,28.9993022 16.4084286,28.9993022 C12.5368839,28.9993022 9.76261232,28.6629732 7.67803649,27.940751 C7.23394947,27.7849775 6.84584356,27.6119451 6.50354031,27.4594907 C5.89748433,27.1895425 5.41910064,26.9764604 4.92279412,26.9764604 L2.90061614,26.9764604 C2.28836468,26.9764604 1.40173953,26.9109647 0.775990619,26.3445159 C0.105766641,25.7380174 0.0283224401,24.8584729 0.0283224401,24.2497617 C0.402193008,22.1324223 0.589152478,20.5684519 0.58920085,19.5578504 C0.589250814,18.5139932 0.402438847,16.9962757 0.0287649499,15.0046977 C0.0287649499,14.1559096 0.289419935,13.4392191 0.782849917,12.9322917 C1.13732298,12.5676403 1.79272198,12.1330678 2.90061614,12.1330678 C2.95482704,12.1330678 3.01479097,12.1337316 3.0798441,12.1343954 C3.71178855,12.141476 4.75153183,12.1525395 5.42418979,11.5686104 C5.46512461,11.4900599 5.50495304,11.4163773 5.5407986,11.3502179 C5.56491697,11.3022025 5.58770764,11.2628166 5.60474534,11.2329453 C5.61071962,11.2227669 5.61691515,11.2125885 5.62266818,11.2013038 C5.66913465,11.0908905 5.72423069,10.9930896 5.78928377,10.9063521 C6.14773965,10.3064917 6.55111317,9.74712352 6.90182462,9.36454926 C7.67648759,8.51708878 8.39450569,8.07875478 9.02799903,7.69175515 C9.77168434,7.23748977 10.3091469,6.90934774 10.7769097,5.99594905 L10.8096575,5.93244487 C11.5099741,4.56699346 11.7998366,4.00187231 11.9750817,3.3239039 C12.0343818,3.09400532 12.0604915,2.85237951 12.0525259,2.60588574 C11.9890217,1.64911831 12.4618736,0.180555556 14.0333266,0.00531045752 L14.0802355,0 L14.1273659,0 C15.083912,0 15.8846848,0.226579521 16.5077784,0.673100462 C17.4351171,1.33779278 17.9053138,2.41780707 17.9053138,3.88282952 C17.9053138,6.49601719 17.2662888,8.58678855 16.7148863,9.90422452 L23.2775054,10.7282305 C24.8496221,10.8189509 26.0639467,12.2428172 25.9918131,13.9215856 C25.9535335,14.8117511 25.5844567,15.614294 25.0226546,16.1747685 C25.5537003,16.6960784 25.8360396,17.4010416 25.805062,18.2122141 C25.7948836,19.0251566 25.5455133,19.6748026 25.0638106,20.1432292 C24.8777233,20.3242272 24.6695091,20.4645119 24.4493464,20.5729337 C24.8219635,21.0654786 25.0230971,21.6651178 25.0230971,22.2999388 C25.0230971,23.1657646 24.6953976,23.9559164 24.1001839,24.5245779 C23.6151621,24.9879153 22.9807836,25.2782203 22.3083469,25.3541156 C22.4130072,25.6437568 22.4614651,25.958844 22.4484103,26.2905263 C22.4470827,26.4226239 22.4344703,26.6664624 22.4154412,26.7821862 C22.3287037,27.3052662 22.1180556,27.7197032 21.7711057,28.0496153 C21.1163705,28.672709 20.32644,29.0021786 19.4871664,29.0021786 Z M1.72811136,15.004919 C2.10178414,17.0197577 2.28859527,18.5549209 2.28854475,19.6104084 C2.28849694,20.6093795 2.1015383,22.1559044 1.72766885,24.249983 C1.72766885,24.5529003 1.76041667,24.9436615 1.91619009,25.0848312 C1.99562569,25.1565223 2.22928583,25.277114 2.90061614,25.277114 L4.92279412,25.277114 C5.78043301,25.277114 6.46747343,25.5833503 7.19500611,25.9072882 C7.52292689,26.0535471 7.8619111,26.2044526 8.23740468,26.336329 C10.1086771,26.984426 12.7822712,27.300177 16.4084286,27.300177 C17.1591946,27.300177 19.4882728,27.3030535 19.4882728,27.3030535 C19.8876634,27.3030535 20.2620507,27.1399782 20.6001498,26.8184743 C20.643076,26.7775395 20.7012697,26.7222222 20.7368941,26.5166633 C20.741762,26.4662139 20.7481788,26.3380991 20.7492852,26.2856584 L20.7484,26.267293 L20.7501702,26.2279072 C20.7649952,25.8971099 20.6019199,25.6539352 20.265591,25.5045786 C19.8681917,25.3282271 19.6292211,24.9191006 19.6708197,24.4860771 C19.7232605,23.9388787 20.2122651,23.5313011 20.7601273,23.577325 L21.9025395,23.6740196 C22.2875477,23.6877383 22.6601647,23.5503302 22.9263514,23.296092 C23.1863426,23.0476069 23.3239719,22.703091 23.3239719,22.2999388 C23.3239719,21.7542892 22.9259089,21.1362847 22.0521174,21.0683551 C21.8036322,21.049326 21.5701934,20.9278493 21.411986,20.7351239 C21.2537786,20.5430623 21.180096,20.2910369 21.2093035,20.0438793 C21.2652846,19.572355 21.6668879,19.2227499 22.1404037,19.2331495 C22.6621562,19.2428854 23.5352839,19.2597018 23.879136,18.9251429 C23.934232,18.8718171 24.1012902,18.7091843 24.1059368,18.1830065 L24.1066006,18.1542416 C24.1386846,17.4039182 23.5412582,17.1111792 23.0343307,16.9972256 C22.6130344,16.9025225 22.3236145,16.5071146 22.3603452,16.0776314 C22.3972971,15.6481481 22.7497787,15.3080576 23.1805896,15.2865945 C23.7614209,15.2571657 24.2612677,14.6119451 24.2942368,13.8485669 C24.3267634,13.0920479 23.8202784,12.4530229 23.165322,12.4242579 L23.0967286,12.4182836 L16.4137391,11.5792314 C15.90128,11.514842 15.4598482,11.221218 15.2027335,10.7735907 C14.9453976,10.3259634 14.9139774,9.79668779 15.1164386,9.32162309 C15.5233524,8.36684707 16.2059674,6.39091437 16.2059674,3.88305078 C16.2059674,1.98301332 15.1352464,1.70908224 14.1804705,1.69978892 C13.9932768,1.729439 13.8981311,1.81329999 13.8257761,2.0060253 C13.7527573,2.20052082 13.7450129,2.42555144 13.7485533,2.50233182 L13.7503234,2.52268858 L13.7498808,2.52999044 C13.7653697,2.94553377 13.7217797,3.35576664 13.6199959,3.74918301 C13.3976205,4.60969838 13.0604064,5.26731003 12.3215891,6.70799292 L12.2890625,6.77127584 C11.6033497,8.11017496 10.7441619,8.63480392 9.91351785,9.14217387 C9.35038804,9.48624728 8.76778661,9.84182668 8.15531385,10.5120507 C7.87408085,10.8187296 7.5249183,11.3088405 7.22089458,11.8237337 L7.16756875,11.908701 C7.1337146,11.9828261 7.10118803,12.0392497 7.07861861,12.0786356 C7.07242308,12.0896991 7.06556373,12.1005413 7.05958945,12.1124898 L7.04144541,12.1481141 C6.98988973,12.242596 6.92970455,12.3545582 6.8726171,12.4685117 L6.81088302,12.5910948 L6.71374594,12.6882319 C5.54146242,13.8605154 3.86623433,13.8423713 3.0612575,13.8337418 C3.00306373,13.8328568 2.94929533,13.8324142 2.90061614,13.8324142 C2.07860155,13.8324142 1.72811136,14.1829044 1.72811136,15.004919 Z M20.7617349,26.5198882 C20.7609537,26.5241851 20.7601725,26.5288726 20.7593912,26.5335601 C20.7597818,26.5312164 20.7601725,26.528482 20.7609537,26.5261382 L20.7617349,26.5198882 Z M20.771763,26.3198747 C20.771763,26.3237809 20.7721537,26.3272965 20.7721537,26.3304215 L20.771763,26.3198747 Z" id="Shape" stroke="#0A1F44" stroke-width="0.4" fill="#0A1F44" fill-rule="nonzero"></path>
                                </g>
                                <rect id="Rectangle" fill="#0A1F44" fill-rule="nonzero" transform="translate(14.113907, 50.239286) rotate(-56.311522) translate(-14.113907, -50.239286) " x="7.1755819" y="48.7392863" width="13.8766503" height="3"></rect>
                                <rect id="Rectangle" fill="#0A1F44" fill-rule="nonzero" transform="translate(29.718751, 49.060656) rotate(-50.192962) translate(-29.718751, -49.060656) " x="28.2187511" y="41.5463734" width="3" height="15.0285648"></rect>
                                <rect id="Rectangle" fill="#0A1F44" fill-rule="nonzero" transform="translate(44.964759, 45.974207) rotate(-62.148598) translate(-44.964759, -45.974207) " x="37.9647586" y="44.474207" width="14" height="3"></rect>
                            </g>
                        </g>
                    </g>
                </g>
            </g>
        </g>
    </g>
</svg>