<?xml version="1.0" encoding="UTF-8"?>
<svg width="48px" height="48px" viewBox="0 0 48 48" version="1.1" xmlns="http://www.w3.org/2000/svg" xmlns:xlink="http://www.w3.org/1999/xlink">
    <title>Group 28</title>
    <g id="Page-1" stroke="none" stroke-width="1" fill="none" fill-rule="evenodd">
        <g id="Pricing-Final" transform="translate(-903.000000, -1490.000000)">
            <g id="Group-21" transform="translate(246.000000, 1265.000000)">
                <g id="Group-28" transform="translate(657.000000, 225.000000)">
                    <circle id="Oval" fill="#DFE8FF" cx="24" cy="24" r="24"></circle>
                    <g id="cursor-select-hand.4" transform="translate(12.000000, 12.000000)">
                        <g id="Group" stroke-linecap="round" stroke-linejoin="round" transform="translate(5.000000, 2.000000)" stroke="#4A7DFF" stroke-width="1.5">
                            <path d="M7.706,11 L7.706,6.5 C7.706,5.672 7.034,5 6.206,5 L6.206,5 C5.378,5 4.706,5.672 4.706,6.5 L4.706,9 L4.706,14 L2.674,13.323 C2.081,13.125 1.427,13.28 0.984,13.722 L0.984,13.722 C0.297,14.409 0.349,15.536 1.094,16.158 L5.149,19.537 C5.51,19.836 5.963,20 6.43,20 L10.94,20 C11.949,20 12.799,19.249 12.925,18.248 L13.468,13.905 C13.601,12.84 12.87,11.861 11.812,11.684 L7.706,11 L7.706,11 Z" id="Path"></path>
                            <line x1="0.21" y1="6" x2="1.21" y2="6" id="Path"></line>
                            <line x1="12.21" y1="6" x2="11.21" y2="6" id="Path"></line>
                            <line x1="10.45" y1="1.76" x2="9.74" y2="2.46" id="Path"></line>
                            <line x1="1.96" y1="1.76" x2="2.67" y2="2.46" id="Path"></line>
                            <line x1="6.21" y1="0" x2="6.21" y2="1" id="Path"></line>
                        </g>
                        <polygon id="Path" points="0 0 24 0 24 24 0 24"></polygon>
                    </g>
                </g>
            </g>
        </g>
    </g>
</svg>