<?xml version="1.0" encoding="UTF-8"?>
<svg width="48px" height="48px" viewBox="0 0 48 48" version="1.1" xmlns="http://www.w3.org/2000/svg" xmlns:xlink="http://www.w3.org/1999/xlink">
    <title>Group 29</title>
    <g id="Page-1" stroke="none" stroke-width="1" fill="none" fill-rule="evenodd">
        <g id="Pricing-Final" transform="translate(-246.000000, -1737.000000)">
            <g id="Group-21" transform="translate(246.000000, 1265.000000)">
                <g id="Group-29" transform="translate(0.000000, 472.000000)">
                    <circle id="Oval" fill="#E3FFEC" cx="24" cy="24" r="24"></circle>
                    <g id="calendar-chedule" transform="translate(12.000000, 12.000000)">
                        <rect id="Rectangle" stroke="#00CF43" stroke-width="1.5" stroke-linecap="round" stroke-linejoin="round" x="3" y="3" width="18" height="18" rx="3"></rect>
                        <line x1="21" y1="8" x2="3" y2="8" id="Path" stroke="#00CF43" stroke-width="1.5" stroke-linecap="round" stroke-linejoin="round"></line>
                        <path d="M17.3,11.5 C17.3,11.5276142 17.2776142,11.55 17.25,11.55 C17.2223858,11.55 17.2,11.5276142 17.2,11.5 C17.2,11.4723858 17.2223858,11.45 17.25,11.45" id="Path" stroke="#00CF43" stroke-width="1.5" stroke-linecap="round" stroke-linejoin="round"></path>
                        <path d="M17.25,11.45 C17.2776142,11.45 17.3,11.4723858 17.3,11.5" id="Path" stroke="#00CF43" stroke-width="1.5" stroke-linecap="round" stroke-linejoin="round"></path>
                        <path d="M13.799,11.5 C13.799,11.5276142 13.7766142,11.55 13.749,11.55 C13.7213858,11.55 13.699,11.5276142 13.699,11.5 C13.699,11.4723858 13.7213858,11.45 13.749,11.45" id="Path" stroke="#00CF43" stroke-width="1.5" stroke-linecap="round" stroke-linejoin="round"></path>
                        <path d="M13.749,11.45 C13.7766142,11.45 13.799,11.4723858 13.799,11.5" id="Path" stroke="#00CF43" stroke-width="1.5" stroke-linecap="round" stroke-linejoin="round"></path>
                        <path d="M10.299,11.5 C10.299,11.5276142 10.2766142,11.55 10.249,11.55 C10.2213858,11.55 10.199,11.5276142 10.199,11.5 C10.199,11.4723858 10.2213858,11.45 10.249,11.45" id="Path" stroke="#00CF43" stroke-width="1.5" stroke-linecap="round" stroke-linejoin="round"></path>
                        <path d="M10.249,11.45 C10.2766142,11.45 10.299,11.4723858 10.299,11.5" id="Path" stroke="#00CF43" stroke-width="1.5" stroke-linecap="round" stroke-linejoin="round"></path>
                        <path d="M6.799,14.5 C6.799,14.5276142 6.77661424,14.55 6.749,14.55 C6.72138576,14.55 6.699,14.5276142 6.699,14.5 C6.699,14.4723858 6.72138576,14.45 6.749,14.45" id="Path" stroke="#00CF43" stroke-width="1.5" stroke-linecap="round" stroke-linejoin="round"></path>
                        <path d="M6.749,14.45 C6.77661424,14.45 6.799,14.4723858 6.799,14.5" id="Path" stroke="#00CF43" stroke-width="1.5" stroke-linecap="round" stroke-linejoin="round"></path>
                        <path d="M10.299,14.5 C10.299,14.5276142 10.2766142,14.55 10.249,14.55 C10.2213858,14.55 10.199,14.5276142 10.199,14.5 C10.199,14.4723858 10.2213858,14.45 10.249,14.45" id="Path" stroke="#00CF43" stroke-width="1.5" stroke-linecap="round" stroke-linejoin="round"></path>
                        <path d="M10.249,14.45 C10.2766142,14.45 10.299,14.4723858 10.299,14.5" id="Path" stroke="#00CF43" stroke-width="1.5" stroke-linecap="round" stroke-linejoin="round"></path>
                        <path d="M13.799,14.5 C13.799,14.5276142 13.7766142,14.55 13.749,14.55 C13.7213858,14.55 13.699,14.5276142 13.699,14.5 C13.699,14.4723858 13.7213858,14.45 13.749,14.45" id="Path" stroke="#00CF43" stroke-width="1.5" stroke-linecap="round" stroke-linejoin="round"></path>
                        <path d="M13.749,14.45 C13.7766142,14.45 13.799,14.4723858 13.799,14.5" id="Path" stroke="#00CF43" stroke-width="1.5" stroke-linecap="round" stroke-linejoin="round"></path>
                        <path d="M17.3,14.5 C17.3,14.5276142 17.2776142,14.55 17.25,14.55 C17.2223858,14.55 17.2,14.5276142 17.2,14.5 C17.2,14.4723858 17.2223858,14.45 17.25,14.45" id="Path" stroke="#00CF43" stroke-width="1.5" stroke-linecap="round" stroke-linejoin="round"></path>
                        <path d="M17.25,14.45 C17.2776142,14.45 17.3,14.4723858 17.3,14.5" id="Path" stroke="#00CF43" stroke-width="1.5" stroke-linecap="round" stroke-linejoin="round"></path>
                        <path d="M17.3,17.5 C17.3,17.5276142 17.2776142,17.55 17.25,17.55 C17.2223858,17.55 17.2,17.5276142 17.2,17.5 C17.2,17.4723858 17.2223858,17.45 17.25,17.45" id="Path" stroke="#00CF43" stroke-width="1.5" stroke-linecap="round" stroke-linejoin="round"></path>
                        <path d="M17.25,17.45 C17.2776142,17.45 17.3,17.4723858 17.3,17.5" id="Path" stroke="#00CF43" stroke-width="1.5" stroke-linecap="round" stroke-linejoin="round"></path>
                        <path d="M13.799,17.5 C13.799,17.5276142 13.7766142,17.55 13.749,17.55 C13.7213858,17.55 13.699,17.5276142 13.699,17.5 C13.699,17.4723858 13.7213858,17.45 13.749,17.45" id="Path" stroke="#00CF43" stroke-width="1.5" stroke-linecap="round" stroke-linejoin="round"></path>
                        <path d="M13.749,17.45 C13.7766142,17.45 13.799,17.4723858 13.799,17.5" id="Path" stroke="#00CF43" stroke-width="1.5" stroke-linecap="round" stroke-linejoin="round"></path>
                        <path d="M10.299,17.5 C10.299,17.5276142 10.2766142,17.55 10.249,17.55 C10.2213858,17.55 10.199,17.5276142 10.199,17.5 C10.199,17.4723858 10.2213858,17.45 10.249,17.45" id="Path" stroke="#00CF43" stroke-width="1.5" stroke-linecap="round" stroke-linejoin="round"></path>
                        <path d="M10.249,17.45 C10.2766142,17.45 10.299,17.4723858 10.299,17.5" id="Path" stroke="#00CF43" stroke-width="1.5" stroke-linecap="round" stroke-linejoin="round"></path>
                        <path d="M6.799,17.5 C6.799,17.5276142 6.77661424,17.55 6.749,17.55 C6.72138576,17.55 6.699,17.5276142 6.699,17.5 C6.699,17.4723858 6.72138576,17.45 6.749,17.45" id="Path" stroke="#00CF43" stroke-width="1.5" stroke-linecap="round" stroke-linejoin="round"></path>
                        <path d="M6.749,17.45 C6.77661424,17.45 6.799,17.4723858 6.799,17.5" id="Path" stroke="#00CF43" stroke-width="1.5" stroke-linecap="round" stroke-linejoin="round"></path>
                        <polygon id="Path" points="0 0 24 0 24 24 0 24"></polygon>
                    </g>
                </g>
            </g>
        </g>
    </g>
</svg>