<?xml version="1.0" encoding="UTF-8"?>
<svg width="125px" height="91px" viewBox="0 0 125 91" version="1.1" xmlns="http://www.w3.org/2000/svg" xmlns:xlink="http://www.w3.org/1999/xlink">
    <title>Group 36 Copy</title>
    <defs>
        <linearGradient x1="100%" y1="6.198089%" x2="11.9075181%" y2="83.8845353%" id="linearGradient-1">
            <stop stop-color="#FFFFFF" offset="0%"></stop>
            <stop stop-color="#9FCFF3" offset="100%"></stop>
        </linearGradient>
    </defs>
    <g id="Page-1" stroke="none" stroke-width="1" fill="none" fill-rule="evenodd">
        <g id="Page-option-2" transform="translate(-658.000000, -780.000000)">
            <g id="Group-7" transform="translate(245.000000, 654.000000)">
                <g id="Group-5" transform="translate(0.000000, 126.000000)">
                    <g id="Group-2" transform="translate(340.000000, 0.000000)">
                        <g id="Group-36-Copy" transform="translate(73.000000, 0.000000)">
                            <rect id="Rectangle" fill="#FFFFFF" x="0" y="0" width="125" height="91" rx="15"></rect>
                            <g id="brain" transform="translate(27.000000, 12.000000)">
                                <polygon id="Path-11" fill="url(#linearGradient-1)" points="42.2774402 47.6346952 36.7733899 46.5454286 30.9919873 49.7074782 26.0445786 49.7074782 21.924966 46.5454286 19.2246539 43.221461 16.0780989 43.911743 10.4070948 43.221461 4.60051353 39.7328638 1.04567719 33.5 1.04567719 28.5241089 3.25558689 22.9135336 3.25558689 18.3058428 5.6742856 15.5375301 8.28124306 13.8585206 9.51654578 9 12.7564555 6.53695997 16.9198401 5.71574901 19.2246539 6.53695997 22.6857482 3.02240946 27.1684744 1.19017933 31.8255939 1.19017933 36 3.85834024 39.7096065 1.19017933 43.8145086 1.72474118 46.9839087 4.74733985 53.113164 5.71574901 56.9995836 7.60492159 60.7194369 10.6573111 62.4021446 15.5375301 63.0769321 17.6539097 66.340471 19.1243422 68.6750602 22.9135336 68.6750602 26.0517995 68.6750602 28.5241089 69.6183423 30.3753198 69.6183423 32.3454514 69.6183423 34.8385239 68.6750602 37.8223862 67.0276541 40.2476701 65.5990569 43.911743 63.8392638 46.5454286 59.6173873 49.7074782 60.1864245 51.7120851 61.8133519 54.4042626 62.4021446 56.6718895 63.0769321 59.2145445 63.8392638 62.4381849 63.8392638 64.5996742 61.8133519 65.3720773 59.095221 64.5996742 56.9995836 63.2865114 56.0218777 60.1105167 53.113164 57.9455412 47.8822051 55.908783 44.8487602 53.4505732 42.9944504 50.5077715"></polygon>
                                <path d="M69.8661896,23.6834541 C69.859007,20.1515159 67.2585241,17.1610866 63.7617793,16.6636783 C62.5992724,9.15096389 56.1530895,3.59454995 48.5510809,3.55251812 C48.2491169,3.55251812 47.9317586,3.5880433 47.6226895,3.60580589 C46.5067761,1.62584391 44.5085923,0.301563055 42.2503092,0.045302315 C39.992026,-0.210958425 37.7479214,0.631924871 36.216738,2.31150512 C34.1151782,0.808289609 31.5960677,0 29.0122313,0 C24.9964219,0.0200621 21.2341481,1.96594435 18.897028,5.23167501 C16.2135313,4.2951788 13.2437004,4.7023781 10.9113104,6.3266123 C8.57892037,7.9508465 7.16691749,10.595077 7.11450962,13.4368077 C3.62711721,14.6089524 1.65237852,18.2908443 2.60517995,21.8444339 C0.904474014,24.2971638 -0.00464993833,27.2117326 -1.77486845e-05,30.196404 C-0.00440828421,34.8364404 2.16929333,39.2095138 5.87085378,42.007443 C9.57241422,44.8053721 14.3725961,45.7037058 18.8354511,44.4337124 C20.382649,47.7614685 23.4599039,50.1218787 27.0749337,50.7538124 C30.6899636,51.3857463 34.3854926,50.2092687 36.9698719,47.6037428 C38.4260792,48.0985086 39.9409572,48.3998917 41.475649,48.5001615 C41.694721,52.9289674 43.3975613,55.5838826 50.5452278,57.9664381 C55.1860006,59.5129677 56.4246453,62.6533937 56.7491086,64.3882067 C56.9695577,65.5111319 57.9565294,66.3191963 59.1008756,66.3136997 L62.7137865,66.3136997 C63.3666695,66.3147897 63.9910549,66.0463407 64.4394128,65.5717539 C64.8877708,65.0971671 65.1203266,64.4585436 65.0821319,63.8067779 C64.9056902,60.9647634 64.1182153,54.3843157 60.687667,50.2065544 C64.6359671,48.0488503 67.4369306,44.2654497 68.3480802,39.8592533 C71.5751035,36.1021958 71.9516693,30.671847 69.2741033,26.5053377 C69.6612987,25.6147575 69.8627675,24.6545574 69.8661896,23.6834541 Z M66.4013003,38.499823 L66.3740643,38.5282432 C64.6891139,40.3796665 62.3040728,41.438348 59.8007216,41.4460447 C58.399388,41.4509079 57.0178004,41.1156696 55.7745344,40.4691022 C55.2103449,40.1779143 54.6808257,39.8239745 54.1960322,39.4140043 C55.7782055,37.607639 56.1096117,35.0233256 55.0344265,32.8761868 C54.8440476,32.4979675 54.4663527,32.2500443 54.0436157,32.2258076 C53.6208786,32.2015707 53.2173234,32.4047027 52.9849652,32.7586853 C52.752607,33.1126679 52.7267468,33.5637229 52.9171257,33.9419423 C53.1631118,34.4333241 53.2900789,34.9756725 53.2877718,35.5251812 C53.2893132,37.1742309 52.1558565,38.6075344 50.5508538,38.9861288 C48.945851,39.3647231 47.2913341,38.5890576 46.5557499,37.1131568 C46.3653711,36.7349373 45.9876761,36.4870142 45.5649391,36.4627774 C45.142202,36.4385407 44.7386467,36.6416725 44.5062886,36.9956552 C44.2739305,37.3496378 44.2480703,37.8006929 44.4384491,38.1789122 C45.8649706,41.0556735 49.3334615,42.2588985 52.2350422,40.8835627 C52.9724629,41.5626145 53.8010962,42.1353639 54.6969373,42.5852188 C57.9077119,44.2400416 61.7227212,44.2298824 64.9246369,42.5579829 C63.0708927,46.2798805 59.5396599,48.8825838 55.435861,49.5517069 C54.8242731,49.6473029 54.3895048,50.1978091 54.438239,50.8149018 C54.4869732,51.4319944 55.0027642,51.9074314 55.6217762,51.9058422 C55.6852512,51.906015 55.7486291,51.9008655 55.8112438,51.890448 C56.700268,51.7449033 57.5745068,51.520201 58.4235288,51.219022 C61.7865793,54.7537776 62.5468181,61.2394915 62.7137865,63.9500628 L59.0771921,63.9500628 C58.7385187,62.1418311 57.3009331,57.7201302 51.2936249,55.7176941 C45.1868463,53.6821013 44.0145153,51.8336077 43.8428103,48.5048982 L43.9067556,48.5048982 C45.2462246,48.4126822 46.5708,48.1679496 47.8547874,47.7754478 C48.4800119,47.5834986 48.8312509,46.9210485 48.6393018,46.295824 C48.4473526,45.6705995 47.7849025,45.3193604 47.159678,45.5113096 C46.0402637,45.8534159 44.8852054,46.0655937 43.7172879,46.1436578 C41.4531632,46.3201803 39.1786176,45.9775404 37.066974,45.1418477 C36.5995014,44.9640766 36.070785,45.0953116 35.7407006,45.4710477 C33.6674231,47.8789542 30.4649548,48.9946011 27.3443317,48.3960987 C24.2237088,47.7975962 21.661232,45.5762939 20.6259202,42.5721929 L20.6259202,42.5650879 C19.7616207,40.0871794 20.0445668,37.3531906 21.3980008,35.1047999 C21.7351381,34.5443214 21.5540842,33.8166601 20.9936058,33.4795228 C20.4331274,33.1423855 19.7054661,33.3234394 19.3683265,33.8839178 C18.8435928,34.7581468 18.4407995,35.69999 18.1711302,36.6833021 C17.1613732,36.8174839 16.1432532,36.5051566 15.3824444,35.8278207 C14.6216356,35.1504848 14.193615,34.1753362 14.2100725,33.1568358 L14.2100725,33.1094689 C14.209168,32.7978424 14.0833502,32.4995908 13.8607817,32.2814736 C13.6382132,32.0633565 13.3374808,31.943589 13.0258998,31.9489796 C12.3675433,31.9606208 11.8403305,32.4983779 11.8417271,33.1568358 C11.845642,36.4252154 14.4942109,39.0737843 17.7625906,39.0776993 L17.8028525,39.0776993 C17.7921949,39.2766403 17.7625906,39.473213 17.7625906,39.6697856 C17.7651782,40.5210842 17.8648991,41.3693072 18.0598179,42.1979944 C14.3222565,43.2096852 10.3267328,42.4234588 7.2511388,40.0710972 C4.17554481,37.7187355 2.37057712,34.0684679 2.36832647,30.196404 C2.3647923,28.1728047 2.86104793,26.1796468 3.81303611,24.3939577 C4.35713537,25.1287203 5.03832968,25.7512049 5.81902468,26.2270571 C6.18180219,26.4447237 6.63314616,26.4523162 7.00303965,26.246975 C7.37293315,26.0416336 7.60518055,25.6545547 7.61229652,25.2315469 C7.61941248,24.8085391 7.40031593,24.4138674 7.03753839,24.1962009 C5.20839477,23.102379 4.33501378,20.9216346 4.90344753,18.8675909 C5.47188126,16.8135471 7.34213602,15.3920734 9.47338165,15.3942452 C10.967793,15.3887242 12.375302,16.0959975 13.2627343,17.2983949 C13.6551347,17.8215953 14.3973757,17.9276297 14.9205761,17.5352294 C15.4437765,17.1428291 15.5498109,16.4005881 15.1574106,15.8773876 C13.8313801,14.0840625 11.7333159,13.026023 9.50298596,13.0258998 C9.81225066,9.67486456 12.6210589,7.10974283 15.9863315,7.10503623 C16.558796,7.10848541 17.1282538,7.18812985 17.6796985,7.34187078 C17.3941785,7.96457702 17.1604992,8.60976943 16.9810366,9.27088811 C16.9014093,9.57490732 16.9458999,9.89811044 17.1047091,10.1693075 C17.2635182,10.4405046 17.5236187,10.6374497 17.8277201,10.716763 C18.1317393,10.7963903 18.4549424,10.7518996 18.7261395,10.5930905 C18.9973366,10.4342814 19.1942817,10.1741808 19.273595,9.8700795 C19.5076859,8.96815635 19.8663911,8.10327805 20.3393504,7.30042473 C22.167289,4.25120888 25.4571036,2.38036266 29.0122313,2.36834368 C31.1371946,2.36709702 33.2076205,3.04092882 34.9248056,4.29262606 C34.5393172,5.18011547 34.3405965,6.13744204 34.3410085,7.10503623 C34.3410085,7.75903676 34.8711807,8.28920894 35.5251812,8.28920894 C36.1791816,8.28920894 36.7093539,7.75903676 36.7093539,7.10503623 C36.7093539,4.48903413 38.8300426,2.36834368 41.4460447,2.36834368 C44.0620468,2.36834368 46.1827355,4.48903413 46.1827355,7.10503623 C46.1827355,7.75903676 46.7129078,8.28920894 47.3669082,8.28920894 C48.0209087,8.28920894 48.5510809,7.75903676 48.5510809,7.10503623 C48.5490508,6.70801105 48.5133982,6.31187108 48.4445054,5.92086353 L48.5510809,5.92086353 C54.8753502,5.95408191 60.2736995,10.4991164 61.3839605,16.7252553 C60.3380299,16.9262503 59.3513255,17.3619063 58.4981317,17.9994251 C57.9749312,18.3918254 57.8688969,19.1340665 58.2612971,19.6572669 C58.6536974,20.1804673 59.3959385,20.2865017 59.9191389,19.8941015 C61.7126675,18.5471508 64.2050526,18.64283 65.8900399,20.123316 C67.5750271,21.603802 67.990607,24.0631579 66.8856269,26.0150902 C66.3937582,26.871875 65.6493529,27.5559008 64.7541161,27.9737118 C64.1615916,28.251008 63.9060486,28.956137 64.1833448,29.5486615 C64.460641,30.141186 65.16577,30.396729 65.7582945,30.1194328 C66.5077214,29.7618016 67.1889754,29.2761076 67.7713881,28.6842154 C69.3641552,31.9292415 68.8185683,35.8173115 66.3941953,38.4986388 L66.4013003,38.499823 Z" id="Shape" fill="#0A1F44" fill-rule="nonzero"></path>
                                <polygon id="Path-12" fill="#FFFFFF" points="36.5727356 11.7919354 36.5727356 23.5643045 42.3696328 23.5643045 31.0783694 40.1488924 30.3989335 28.5868618 25.0258121 28.5868618"></polygon>
                                <path d="M42.6302174,22.4992814 L37.8935266,22.4992814 L37.8935266,11.8417271 C37.8935962,11.3268215 37.560922,10.8708845 37.0705543,10.7138262 C36.5801864,10.556768 36.0445278,10.7345895 35.7454373,11.1537227 L23.9037102,27.7321406 C23.6460167,28.0931349 23.6116601,28.5678683 23.8146901,28.9622054 C24.0177199,29.3565424 24.4240923,29.6043604 24.8676268,29.6043176 L29.6043176,29.6043176 L29.6043176,40.261872 C29.604248,40.7767776 29.9369223,41.2327146 30.42729,41.3897728 C30.9176578,41.5468311 31.4533164,41.3690095 31.7524069,40.9498763 L43.594134,24.3714585 C43.8518275,24.0104641 43.8861841,23.5357307 43.6831542,23.1413936 C43.4801243,22.7470566 43.0737519,22.4992387 42.6302174,22.4992814 Z M31.9726631,36.566069 L31.9726631,28.4201449 C31.9726631,27.7661445 31.4424908,27.2359722 30.7884903,27.2359722 L27.1684744,27.2359722 L35.5251812,15.5375301 L35.5251812,23.6834541 C35.5251812,24.3374546 36.0553534,24.8676268 36.7093539,24.8676268 L40.3293698,24.8676268 L31.9726631,36.566069 Z" id="Shape" fill="#0A1F44" fill-rule="nonzero"></path>
                            </g>
                        </g>
                    </g>
                </g>
            </g>
        </g>
    </g>
</svg>