<?xml version="1.0" encoding="UTF-8"?>
<svg width="24px" height="24px" viewBox="0 0 24 24" version="1.1" xmlns="http://www.w3.org/2000/svg" xmlns:xlink="http://www.w3.org/1999/xlink">
    <!-- Generator: Sketch 63.1 (92452) - https://sketch.com -->
    <title>Artboard</title>
    <desc>Created with Sketch.</desc>
    <g id="Artboard" stroke="none" stroke-width="1" fill="none" fill-rule="evenodd">
        <g id="linkedin-fill">
            <polygon id="Path" points="0 0 24 0 24 24 0 24"></polygon>
            <path d="M6.93999974,5 C6.93944772,6.1045695 6.0435695,6.99955228 4.939,6.99899974 C3.8344305,6.99844772 2.93944772,6.1025695 2.93999974,4.998 C2.94055228,3.8934305 3.8364305,2.99844772 4.941,2.99899974 C6.0455695,2.99955228 6.94055228,3.8954305 6.93999974,5 L6.93999974,5 Z M7,8.48 L3,8.48 L3,21 L7,21 L7,8.48 Z M13.32,8.48 L9.34,8.48 L9.34,21 L13.28,21 L13.28,14.43 C13.28,10.77 18.05,10.43 18.05,14.43 L18.05,21 L22,21 L22,13.07 C22,6.9 14.94,7.13 13.28,10.16 L13.32,8.48 Z" id="Shape" fill="#5B7FFF" fill-rule="nonzero"></path>
        </g>
    </g>
</svg>