<?xml version="1.0" encoding="UTF-8"?>
<svg width="24px" height="20px" viewBox="0 0 24 20" version="1.1" xmlns="http://www.w3.org/2000/svg" xmlns:xlink="http://www.w3.org/1999/xlink">
    <!-- Generator: Sketch 63.1 (92452) - https://sketch.com -->
    <title>light-bulb</title>
    <desc>Created with Sketch.</desc>
    <g id="Page-1" stroke="none" stroke-width="1" fill="none" fill-rule="evenodd">
        <g id="After-User-Input" transform="translate(-774.000000, -862.000000)">
            <g id="Group-3" transform="translate(624.000000, 845.000000)">
                <g id="Group-8" transform="translate(18.000000, 15.000000)">
                    <g id="light-bulb" transform="translate(132.000000, 0.000000)">
                        <g id="Group" transform="translate(1.000000, 2.000000)" stroke="#FFFFFF" stroke-linecap="round" stroke-linejoin="round" stroke-width="1.5">
                            <line x1="14" y1="13.191" x2="8" y2="13.191" id="Path"></line>
                            <path d="M7.541,12.896 C5.765,11.641 4.7,9.45 5.075,7.038 C5.481,4.431 7.654,2.35 10.275,2.043 C13.913,1.616 17,4.448 17,8 C17,10.025 15.994,11.812 14.457,12.898 C14.181,13.093 14,13.395 14,13.733 L14,16.5 C14,17.881 12.881,19 11.5,19 L10.5,19 C9.119,19 8,17.881 8,16.5 L8,13.737 C8,13.396 7.818,13.092 7.541,12.896 Z" id="Path"></path>
                            <line x1="19" y1="3" x2="20.193" y2="1.807" id="Path"></line>
                            <line x1="3" y1="13" x2="1.807" y2="14.193" id="Path"></line>
                            <line x1="4" y1="2" x2="2.807" y2="0.807" id="Path"></line>
                            <line x1="19" y1="13" x2="20.193" y2="14.193" id="Path"></line>
                            <line x1="20" y1="8" x2="21.687" y2="8" id="Path"></line>
                            <line x1="0.313" y1="8" x2="2" y2="8.001" id="Path"></line>
                            <line x1="8" y1="16" x2="13.873" y2="16" id="Path"></line>
                        </g>
                        <polygon id="Path" points="0 0 24 0 24 24 0 24"></polygon>
                    </g>
                </g>
            </g>
        </g>
    </g>
</svg>