<?xml version="1.0" encoding="UTF-8"?>
<svg width="42px" height="33px" viewBox="0 0 42 33" version="1.1" xmlns="http://www.w3.org/2000/svg" xmlns:xlink="http://www.w3.org/1999/xlink">
    <title>Shape</title>
    <g id="Page-1" stroke="none" stroke-width="1" fill="none" fill-rule="evenodd" opacity="0.210728237">
        <g id="Customers-Stories-v4" transform="translate(-595.000000, -599.000000)" fill="#5B7FFF" fill-rule="nonzero">
            <g id="Group-8-Copy-2" transform="translate(220.000000, 563.000000)">
                <g id="Group-11" transform="translate(0.000000, 25.000000)">
                    <g id="double-quotes-l" transform="translate(368.000000, 0.000000)">
                        <path d="M10.724219,40.5311361 C8.3140192,37.9711763 7.01999932,35.0999966 7.01999932,30.4457371 C7.01999932,22.2557379 12.7693788,14.9151586 21.130198,11.2858189 L23.2198178,14.5103386 C15.4159185,18.7316982 13.8902387,24.2096377 13.2818387,27.6634773 C14.5384186,27.0129574 16.1834384,26.7859774 17.7956983,26.9357374 C22.0170579,27.3265174 25.3445376,30.792057 25.3445376,35.0999966 C25.3445376,39.6232083 21.67775,43.2899958 17.1545383,43.2899958 C14.6437186,43.2899958 12.2428788,42.1433959 10.724219,40.5311361 L10.724219,40.5311361 Z M34.1242167,40.5311361 C31.7140169,37.9711763 30.4199971,35.0999966 30.4199971,30.4457371 C30.4199971,22.2557379 36.1693765,14.9151586 44.5301957,11.2858189 L46.6198155,14.5103386 C38.8159163,18.7316982 37.2902364,24.2096377 36.6818365,27.6634773 C37.9384163,27.0129574 39.5834362,26.7859774 41.195696,26.9357374 C45.4170556,27.3265174 48.7445353,30.792057 48.7445353,35.0999966 C48.7445353,39.6232083 45.0777478,43.2899958 40.5545361,43.2899958 C38.0437163,43.2899958 35.6428766,42.1433959 34.1242167,40.5311361 L34.1242167,40.5311361 Z" id="Shape"></path>
                    </g>
                </g>
            </g>
        </g>
    </g>
</svg>