<?xml version="1.0" encoding="UTF-8"?>
<svg width="48px" height="48px" viewBox="0 0 48 48" version="1.1" xmlns="http://www.w3.org/2000/svg" xmlns:xlink="http://www.w3.org/1999/xlink">
    <title>Group 30</title>
    <g id="Page-1" stroke="none" stroke-width="1" fill="none" fill-rule="evenodd">
        <g id="Pricing-Final" transform="translate(-579.000000, -1737.000000)">
            <g id="Group-21" transform="translate(246.000000, 1265.000000)">
                <g id="Group-30" transform="translate(333.000000, 472.000000)">
                    <circle id="Oval" fill="#FFE6D4" cx="24" cy="24" r="24"></circle>
                    <g id="share-arrow-square.2" transform="translate(12.000000, 12.000000)">
                        <g id="Group" transform="translate(3.000000, 3.000000)" stroke="#FF6B00" stroke-linecap="round" stroke-linejoin="round" stroke-width="1.5">
                            <path d="M18,9 L18,14 C18,16.209 16.209,18 14,18 L4,18 C1.791,18 0,16.209 0,14 L0,4 C0,1.791 1.791,0 4,0 L8,0" id="Path"></path>
                            <path d="M18,2.5 L13,2.5 C11.343,2.5 10,3.843 10,5.5 L10,8" id="Path"></path>
                            <polyline id="Path" points="15.5 0 18 2.5 15.5 5"></polyline>
                        </g>
                        <polygon id="Path" points="0 0 24 0 24 24 0 24"></polygon>
                    </g>
                </g>
            </g>
        </g>
    </g>
</svg>