<?xml version="1.0" encoding="UTF-8"?>
<svg width="34px" height="34px" viewBox="0 0 34 34" version="1.1" xmlns="http://www.w3.org/2000/svg" xmlns:xlink="http://www.w3.org/1999/xlink">
    <title>Group 33</title>
    <g id="Page-1" stroke="none" stroke-width="1" fill="none" fill-rule="evenodd" stroke-linecap="round" stroke-linejoin="round">
        <g id="Pricing-Final" transform="translate(-1027.000000, -2706.000000)" stroke="#323232" stroke-width="2.55">
            <g id="Group-5" transform="translate(252.000000, 2258.000000)">
                <g id="interface-essential-107" transform="translate(772.000000, 445.000000)">
                    <g id="Group-33" transform="translate(5.100000, 5.100000)">
                        <line x1="20.111" y1="10.489" x2="10.489" y2="20.111" id="Path"></line>
                        <line x1="20.111" y1="20.111" x2="10.489" y2="10.489" id="Path"></line>
                        <path d="M15.3,30.6 L15.3,30.6 C6.8493,30.6 1.81188398e-13,23.7507 1.81188398e-13,15.3 L1.81188398e-13,15.3 C1.81188398e-13,6.8493 6.8493,-4.61852778e-14 15.3,-4.61852778e-14 L15.3,-4.61852778e-14 C23.7507,-4.61852778e-14 30.6,6.8493 30.6,15.3 L30.6,15.3 C30.6,23.7507 23.7507,30.6 15.3,30.6 Z" id="Path"></path>
                    </g>
                </g>
            </g>
        </g>
    </g>
</svg>