<?xml version="1.0" encoding="UTF-8"?>
<svg width="59px" height="46px" viewBox="0 0 59 46" version="1.1" xmlns="http://www.w3.org/2000/svg" xmlns:xlink="http://www.w3.org/1999/xlink">
    <title>Shape</title>
    <g id="Page-1" stroke="none" stroke-width="1" fill="none" fill-rule="evenodd">
        <g id="Testimonial-Yuriy-Copy" transform="translate(-406.000000, -190.000000)" fill="#5B7FFF" fill-rule="nonzero">
            <g id="Group-7" transform="translate(369.000000, 175.000000)">
                <g id="double-quotes-l" transform="translate(27.000000, 0.000000)">
                    <path d="M15.5345195,56.961449 C12.1680762,53.3357497 10.3606557,49.2692662 10.3606557,42.6773871 C10.3606557,31.0778008 18.3910936,20.6812574 30.0690564,15.5409836 L32.98773,20.1079064 C22.0876444,26.0866646 19.9566531,33.8451307 19.1068713,38.7368419 C20.8619976,37.8155034 23.1596768,37.4940291 25.4115985,37.7061358 C31.3077767,38.2596018 35.9554294,43.1678839 35.9554294,49.2692662 C35.9554294,55.6755408 30.833849,60.8688525 24.5160592,60.8688525 C21.0090752,60.8688525 17.6557055,59.2449104 15.5345195,56.961449 L15.5345195,56.961449 Z M48.2184343,56.961449 C44.8519911,53.3357497 43.0445706,49.2692662 43.0445706,42.6773871 C43.0445706,31.0778008 51.0750084,20.6812574 62.7529712,15.5409836 L65.6716448,20.1079064 C54.7715592,26.0866646 52.640568,33.8451307 51.7907862,38.7368419 C53.5459124,37.8155034 55.8435916,37.4940291 58.0955133,37.7061358 C63.9916916,38.2596018 68.6393443,43.1678839 68.6393443,49.2692662 C68.6393443,55.6755408 63.5177638,60.8688525 57.1999741,60.8688525 C53.69299,60.8688525 50.3396204,59.2449104 48.2184343,56.961449 L48.2184343,56.961449 Z" id="Shape"></path>
                </g>
            </g>
        </g>
    </g>
</svg>