<?xml version="1.0" encoding="UTF-8"?>
<svg width="48px" height="48px" viewBox="0 0 48 48" version="1.1" xmlns="http://www.w3.org/2000/svg" xmlns:xlink="http://www.w3.org/1999/xlink">
    <title>Group 31</title>
    <g id="Page-1" stroke="none" stroke-width="1" fill="none" fill-rule="evenodd">
        <g id="Pricing-Final" transform="translate(-903.000000, -1737.000000)">
            <g id="Group-21" transform="translate(246.000000, 1265.000000)">
                <g id="Group-31" transform="translate(657.000000, 472.000000)">
                    <circle id="Oval" fill="#D2FAFF" cx="24" cy="24" r="24"></circle>
                    <g id="messages-chat" transform="translate(12.000000, 12.000000)">
                        <polygon id="Path" points="0 0 24 0 24 24 0 24"></polygon>
                        <path d="M20,20 L20,5.778 C20,4.796 19.204,4 18.222,4 L5.778,4 C4.796,4 4,4.796 4,5.778 L4,16.445 C4,17.427 4.796,18.223 5.778,18.223 L16.667,18.223 L20,20 Z" id="Path" stroke="#009DB0" stroke-width="1.3333" stroke-linecap="round" stroke-linejoin="round"></path>
                        <path d="M12.177,11.073 C12.275,11.171 12.275,11.329 12.177,11.427 C12.079,11.525 11.921,11.525 11.823,11.427 C11.725,11.329 11.725,11.171 11.823,11.073 C11.921,10.975 12.079,10.976 12.177,11.073" id="Path" stroke="#009DB0" stroke-width="1.5" stroke-linecap="round" stroke-linejoin="round"></path>
                        <path d="M16.177,11.073 C16.275,11.171 16.275,11.329 16.177,11.427 C16.079,11.525 15.921,11.525 15.823,11.427 C15.725,11.329 15.725,11.171 15.823,11.073 C15.921,10.975 16.079,10.976 16.177,11.073" id="Path" stroke="#009DB0" stroke-width="1.5" stroke-linecap="round" stroke-linejoin="round"></path>
                        <path d="M8.177,11.073 C8.275,11.171 8.275,11.329 8.177,11.427 C8.079,11.525 7.921,11.525 7.823,11.427 C7.725,11.329 7.725,11.171 7.823,11.073 C7.921,10.975 8.079,10.976 8.177,11.073" id="Path" stroke="#009DB0" stroke-width="1.5" stroke-linecap="round" stroke-linejoin="round"></path>
                    </g>
                </g>
            </g>
        </g>
    </g>
</svg>