<?xml version="1.0" encoding="UTF-8"?>
<svg width="125px" height="91px" viewBox="0 0 125 91" version="1.1" xmlns="http://www.w3.org/2000/svg" xmlns:xlink="http://www.w3.org/1999/xlink">
    <title>Group 36</title>
    <defs>
        <linearGradient x1="77.3887299%" y1="0%" x2="29.133906%" y2="88.6792888%" id="linearGradient-1">
            <stop stop-color="#FFFFFF" offset="0%"></stop>
            <stop stop-color="#9FCFF3" offset="100%"></stop>
        </linearGradient>
        <linearGradient x1="91.1498187%" y1="0%" x2="18.6500256%" y2="88.6792888%" id="linearGradient-2">
            <stop stop-color="#FFFFFF" offset="0%"></stop>
            <stop stop-color="#9FCFF3" offset="100%"></stop>
        </linearGradient>
    </defs>
    <g id="Page-1" stroke="none" stroke-width="1" fill="none" fill-rule="evenodd">
        <g id="Page-option-2" transform="translate(-318.000000, -780.000000)">
            <g id="Group-7" transform="translate(245.000000, 654.000000)">
                <g id="Group-5" transform="translate(0.000000, 126.000000)">
                    <g id="Group-36" transform="translate(73.000000, 0.000000)">
                        <rect id="Rectangle" fill="#FFFFFF" x="0" y="0" width="125" height="91" rx="15"></rect>
                        <g id="Group-27-Copy-2" transform="translate(14.000000, 8.000000)">
                            <g id="writing" transform="translate(0.000000, 12.000000)">
                                <polyline id="Path-15" fill="url(#linearGradient-1)" points="45.5094121 51.9608484 45.5094121 56.595057 41.900101 60.7101213 37.5521328 61.5520244 6.898725 61.5520244 3.34278465 59.6821191 1.42440442 55.7835114 1.42440442 7.24899304 2.46466463 3.6668651 5.83116284 1.98718489 29.5125356 1.98718489 45.3785201 16.5488038 45.487565 26.6304806"></polyline>
                                <path d="M45.321263,51.4760576 C44.5352602,51.4782854 43.8980811,52.115019 43.8958531,52.9019131 L43.8958531,55.4533032 C43.8891695,57.8117573 41.9780774,59.7228493 39.6191778,59.729533 L7.1742811,59.729533 C4.81538144,59.7228493 2.90473506,57.8117573 2.89760578,55.4533032 L2.89760578,7.1279408 C2.90473506,4.76948669 4.81538144,2.85839475 7.1742811,2.85171103 L28.4716611,2.85171103 L28.4716611,11.1479622 C28.4729978,15.083769 31.6637952,18.2745663 35.599602,18.2754575 L43.8958531,18.2754575 L43.8958531,25.8307094 C43.8958531,26.6180489 44.5339234,27.2561192 45.321263,27.2561192 C46.1086027,27.2561192 46.7467705,26.6180489 46.7467705,25.8307094 L46.7467705,16.8215304 C46.7439995,16.4436787 46.5960671,16.0814223 46.3336205,15.809173 L30.9379456,0.442906312 L30.923687,0.428202205 C30.6545568,0.151051597 30.2833888,-0.00401021293 29.8975166,-0.000105356355 C29.8493941,-0.00178231939 29.8008258,0.00267347909 29.754931,0.0151496578 L7.1742811,0.0151496578 C3.23847433,0.0160408745 0.0485681749,3.20639259 0.0467858555,7.14264502 L0.0467858555,55.4675618 C0.0485681749,59.4033686 3.23847433,62.5937203 7.1742811,62.595057 L39.6191778,62.595057 C43.5549845,62.5937203 46.7453362,59.4033686 46.7467705,55.4675618 L46.7467705,52.915726 C46.7511287,52.5352008 46.6027507,52.1684886 46.3349572,51.8984671 C46.0671638,51.6275546 45.7022338,51.4756119 45.321263,51.4760576 Z M31.3229265,11.1479622 L31.3229265,4.86172175 L41.900101,15.4246376 L35.599602,15.4246376 C33.2402567,15.4179538 31.3296103,13.5073075 31.3229265,11.1479622 Z" id="Shape" fill="#0A1F44" fill-rule="nonzero"></path>
                                <polygon id="Path-2" fill="#FFFFFF" points="34.2882605 43.4360147 52.3914114 27.4405147 58.6058319 33.5727987 39.9957703 50.350349 32.3692981 50.735733"></polygon>
                                <path d="M53.7462868,26.1871733 C53.4985444,25.9002198 53.1460907,25.725107 52.7677935,25.7010456 C52.3899417,25.6765387 52.0178827,25.8057569 51.7362762,26.0592918 L33.0762833,42.3951402 C32.8396803,42.597879 32.678826,42.8741385 32.619564,43.1793607 L31.1228612,50.2355633 C31.038201,50.6708948 31.1536062,51.1209303 31.436995,51.461799 C31.7087987,51.7768239 32.104028,51.9586205 32.5201996,51.9608484 L32.605751,51.9608484 L39.932866,51.5473503 C40.2501188,51.5295271 40.5517763,51.4038736 40.7879337,51.191332 L59.4341135,34.8545925 C59.7206214,34.6046222 59.8948432,34.2503862 59.9184589,33.8711977 C59.9500951,33.493346 59.8204313,33.1208413 59.561995,32.8441362 L53.7462868,26.1871733 Z M39.2627139,48.7250475 L34.2882605,49.0097731 L35.2997268,44.2197897 L52.5200511,29.137803 L56.4687797,33.6426153 L39.2627139,48.7250475 Z" id="Shape" fill="#0A1F44" fill-rule="nonzero"></path>
                                <path d="M9.32687738,24.6766575 L22.7268001,24.6766575 C23.5141397,24.6766575 24.1522101,24.0376961 24.1522101,23.250802 C24.1522101,22.4634625 23.5141397,21.8253922 22.7268001,21.8253922 L9.32687738,21.8253922 C8.53953776,21.8253922 7.90146741,22.4634625 7.90146741,23.250802 C7.90146741,24.0376961 8.53953776,24.6766575 9.32687738,24.6766575 Z" id="Path" fill="#0A1F44" fill-rule="nonzero"></path>
                                <path d="M37.5521328,32.6302579 C37.5499049,31.844255 36.9131714,31.2075214 36.126723,31.2048479 L9.32687738,31.2048479 C8.53953776,31.2048479 7.90146741,31.8438094 7.90146741,32.6302579 C7.90146741,33.4175975 8.53953776,34.0561134 9.32687738,34.0561134 L36.126723,34.0561134 C36.9131714,34.0538854 37.5499049,33.4171518 37.5521328,32.6302579 L37.5521328,32.6302579 Z" id="Path" fill="#0A1F44" fill-rule="nonzero"></path>
                                <path d="M28.0871257,40.5847493 L9.32687738,40.5847493 C8.53953776,40.5847493 7.90146741,41.2232652 7.90146741,42.0106048 C7.90146741,42.7979443 8.53953776,43.4360147 9.32687738,43.4360147 L28.0871257,43.4360147 C28.8740197,43.4360147 29.5125356,42.7979443 29.5125356,42.0106048 C29.5125356,41.2232652 28.8740197,40.5847493 28.0871257,40.5847493 Z" id="Path" fill="#0A1F44" fill-rule="nonzero"></path>
                                <path d="M28.0871257,49.9650963 L9.32687738,49.9650963 C8.53953776,49.9650963 7.90146741,50.6031666 7.90146741,51.3905062 C7.90146741,52.1778457 8.53953776,52.8159161 9.32687738,52.8159161 L28.0871257,52.8159161 C28.8740197,52.8159161 29.5125356,52.1778457 29.5125356,51.3905062 C29.5125356,50.6031666 28.8740197,49.9650963 28.0871257,49.9650963 L28.0871257,49.9650963 Z" id="Path" fill="#0A1F44" fill-rule="nonzero"></path>
                            </g>
                            <g id="fire" transform="translate(68.172004, 28.950637) rotate(46.000000) translate(-68.172004, -28.950637) translate(48.172004, 8.950637)">
                                <polygon id="Path-10" fill="url(#linearGradient-2)" transform="translate(20.144973, 19.916818) rotate(-44.000000) translate(-20.144973, -19.916818) " points="6.93816035 27.4194627 7.67424558 21.2165304 8.7207011 18.3993662 11.4583555 15.2340382 15.5873885 13.1179083 20.8539214 11.5687287 25.8131227 9.89347025 29.5513194 8.38895153 32.048538 5.35890658 32.9466018 8.38895153 33.351786 11.1667011 32.5617917 15.2340382 30.8856723 18.3993662 28.051679 22.1827166 24.8265625 25.0416752 26.3672379 25.5053987 30.2672787 23.8157924 32.5617917 21.6062188 30.2672787 27.4194627 26.3672379 32.1125316 21.4754716 34.1795766 15.1454738 34.4747287 18.4176513 31.5088388 20.1449732 30.4152433 16.2930172 29.1764474 16.2930172 26.7987167 18.4176513 22.8364061 22.1529785 18.3993662 16.2930172 19.1527313 11.4583555 22.1827166 8.7207011 25.5053987"></polygon>
                                <path d="M16.0228028,34.9066844 C16.09987,34.9606314 16.1913874,34.9895318 16.2857946,34.9895318 C16.54108,34.9856784 16.7443446,34.7766336 16.7404912,34.5213483 C16.7395279,34.4558412 16.7241145,34.390334 16.6952144,34.3286803 C13.8716643,24.9014334 18.0641207,20.3583211 19.8568968,18.9162009 C19.7056524,25.0016207 22.981009,29.5659264 23.1399601,29.7663012 C23.2545976,29.9223624 23.456899,29.9897961 23.6437871,29.9348858 C24.5917138,29.6487738 26.0463574,28.7056637 26.9422639,28.092016 C26.6917954,30.5321567 25.6658382,34.3508372 25.6542779,34.3932241 C25.588771,34.6388759 25.7332719,34.8922345 25.979887,34.9587049 C26.1176447,34.9953117 26.2640724,34.9654481 26.3777464,34.8797109 C26.5781212,34.7246132 31.2888548,31.0321303 32.8061154,24.8234026 C34.3407165,18.5655448 30.043256,12.4541147 29.8746714,12.1997929 C29.7282437,11.9926749 29.4402049,11.9425812 29.2330867,12.0880456 C29.0982191,12.1843794 29.0250052,12.3433307 29.0394554,12.5070984 C29.2099665,15.6071273 28.4855347,18.6917424 26.9518972,21.3929483 C27.2322292,19.7504533 27.3757668,17.3324694 27.0992884,13.8085711 C26.3931598,4.93139123 18.3300026,1.0799573 18.2481185,1.04335025 C18.0169169,0.935456146 17.7433285,1.03564353 17.6363977,1.26684517 C17.5997906,1.34487591 17.586304,1.43350296 17.5969008,1.51924042 C18.0641207,5.16548295 17.2134913,6.77618774 14.9390452,11.0803917 C14.018092,12.8163306 12.8794237,14.9780662 11.5134075,17.8651967 C6.64275952,28.1690833 15.9274321,34.8421405 16.0228028,34.9066844 Z M12.33899,18.2592027 C13.6963362,15.388449 14.8350044,13.2373104 15.7463241,11.5061879 C17.8733793,7.4794262 18.8521329,5.62884952 18.594921,2.28027904 C20.5350882,3.43628726 25.6330845,7.09890676 26.1600316,13.8750415 C26.6330315,19.9411948 25.8536893,22.5402865 25.3508259,23.549867 C25.277612,23.7097816 25.1832046,23.8581359 25.0704938,23.9920402 C24.8932392,24.1741115 24.8961293,24.4660036 25.0782006,24.6432582 C25.2525651,24.8137693 25.5290438,24.818586 25.7091884,24.6548183 C28.3092437,21.7599811 29.8139809,18.0453413 29.9604086,14.1553735 C31.1106367,16.2727954 32.9120829,20.4739219 31.9005759,24.6249547 C30.9025552,28.709517 28.3766773,31.7045416 26.9095102,33.1668921 C27.3179664,31.4752668 27.9104207,28.7547941 27.9104207,27.1845495 C27.9104207,26.9302277 27.7042658,26.7231097 27.4509075,26.7231097 C27.3516834,26.7231097 27.2563126,26.7539366 27.1773189,26.8127003 C27.1522719,26.8319671 25.0271436,28.4022115 23.683284,28.9426455 C22.9501822,27.8165006 20.3780637,23.3966959 20.8260171,18.033781 C20.8481737,17.781386 20.6603224,17.5578911 20.4069641,17.5366977 C20.3135199,17.5280275 20.2200759,17.5482576 20.1391554,17.5954614 C20.0707584,17.6378484 12.7050592,21.9854026 15.4669556,33.248776 C13.2416397,31.1930082 8.76018112,25.8397266 12.3457334,18.2592027 L12.33899,18.2592027 Z" id="Shape" stroke="#0A1F44" fill="#0A1F44" fill-rule="nonzero"></path>
                            </g>
                        </g>
                    </g>
                </g>
            </g>
        </g>
    </g>
</svg>