<?xml version="1.0" encoding="UTF-8"?>
<svg width="48px" height="48px" viewBox="0 0 48 48" version="1.1" xmlns="http://www.w3.org/2000/svg" xmlns:xlink="http://www.w3.org/1999/xlink">
    <title>Group 24</title>
    <g id="Page-1" stroke="none" stroke-width="1" fill="none" fill-rule="evenodd">
        <g id="Pricing-Final" transform="translate(-579.000000, -1265.000000)">
            <g id="Group-21" transform="translate(246.000000, 1265.000000)">
                <g id="Group-24" transform="translate(333.000000, 0.000000)">
                    <circle id="Oval" fill="#FFF5CE" cx="24" cy="24" r="24"></circle>
                    <g id="object-arrow-text-edit" transform="translate(12.000000, 12.000000)">
                        <polygon id="Path" points="24 24 0 24 0 0 24 0"></polygon>
                        <g id="Group" transform="translate(3.000000, 3.000000)" stroke="#FFA100" stroke-linecap="round" stroke-linejoin="round" stroke-width="1.5">
                            <path d="M7,0.5 L2,0.5 C0.9,0.5 0,1.4 0,2.5 L0,7.5 C0,8.6 0.9,9.5 2,9.5 L7,9.5 C8.1,9.5 9,8.6 9,7.5 L9,2.5 C9,1.4 8.1,0.5 7,0.5 Z" id="Path"></path>
                            <line x1="18" y1="9" x2="12" y2="9" id="Path"></line>
                            <line x1="18" y1="5" x2="12" y2="5" id="Path"></line>
                            <line x1="18" y1="1" x2="12" y2="1" id="Path"></line>
                            <line x1="18" y1="17" x2="0" y2="17" id="Path"></line>
                            <line x1="18" y1="13" x2="0" y2="13" id="Path"></line>
                            <polyline id="Path" points="3.8 3.5 5.4 5 3.8 6.5"></polyline>
                        </g>
                    </g>
                </g>
            </g>
        </g>
    </g>
</svg>