<?xml version="1.0" encoding="UTF-8"?>
<svg width="72px" height="72px" viewBox="0 0 72 72" version="1.1" xmlns="http://www.w3.org/2000/svg" xmlns:xlink="http://www.w3.org/1999/xlink">
    <title>Artboard</title>
    <g id="Artboard" stroke="none" stroke-width="1" fill="none" fill-rule="evenodd">
        <g id="5f2d113aa59561fccacf8e0e_Group-9" fill="#5B7FFF" fill-opacity="0.130974" fill-rule="nonzero">
            <circle id="Oval" cx="36" cy="36" r="36"></circle>
        </g>
        <g id="key-light" transform="translate(19.000000, 19.000000)" fill="#5B7FFF" fill-rule="nonzero">
            <path d="M22.3125,2.125 C27.5937227,2.125 31.875,6.40627734 31.875,11.6875 C31.875,16.9687227 27.5937227,21.25 22.3125,21.25 C21.0529062,21.25 19.8504219,21.005957 18.7490742,20.5634258 L15.9375,23.375 L12.75,23.375 L12.75,27.625 L8.5,27.625 L8.5,31.875 L2.125,31.875 L2.125,26.5625 L13.4365742,15.2509258 C12.994043,14.1495781 12.75,12.9470938 12.75,11.6875 C12.75,6.40627734 17.0312773,2.125 22.3125,2.125 M22.3125,0 C15.858875,0 10.625,5.23075391 10.625,11.6875 C10.625,12.7039805 10.7541602,13.7030625 11.0100234,14.6722617 L0.466769531,25.2155156 C0.167921782,25.5144097 0,25.9197624 0,26.3424297 L0,32.40625 C0,33.2864648 0.713535156,34 1.59375,34 L9.03125,34 C9.91146484,34 10.625,33.2864648 10.625,32.40625 L10.625,29.75 L13.28125,29.75 C14.1614648,29.75 14.875,29.0364648 14.875,28.15625 L14.875,25.5 L16.1575703,25.5 C16.5802461,25.5 16.9856562,25.3320586 17.2845508,25.0332305 L19.3278047,22.9899766 C20.2969375,23.2458398 21.2960195,23.375 22.3125,23.375 C28.766125,23.375 34,18.1442461 34,11.6875 C34,5.233875 28.7692461,0 22.3125,0 Z M25.5,7.171875 C26.2323281,7.171875 26.828125,7.76767187 26.828125,8.5 C26.828125,9.23232813 26.2323281,9.828125 25.5,9.828125 C24.7676719,9.828125 24.171875,9.23232812 24.171875,8.5 C24.171875,7.76767188 24.7676719,7.171875 25.5,7.171875 M25.5,5.3125 C23.7395703,5.3125 22.3125,6.73957031 22.3125,8.5 C22.3125,10.2604297 23.7395703,11.6875 25.5,11.6875 C27.2604297,11.6875 28.6875,10.2604297 28.6875,8.5 C28.6875,6.73957031 27.2604297,5.3125 25.5,5.3125 Z" id="Shape"></path>
        </g>
    </g>
</svg>