<?xml version="1.0" encoding="UTF-8"?>
<svg width="261px" height="261px" viewBox="0 0 261 261" version="1.1" xmlns="http://www.w3.org/2000/svg" xmlns:xlink="http://www.w3.org/1999/xlink">
    <!-- Generator: Sketch 55.2 (78181) - https://sketchapp.com -->
    <title>Artboard</title>
    <desc>Created with Sketch.</desc>
    <g id="Artboard" stroke="none" stroke-width="1" fill="none" fill-rule="evenodd">
        <g id="question" fill="#000000" fill-rule="nonzero">
            <path d="M244.499995,209.406 C254.627441,195.792199 260.091194,179.273631 260.07902,162.306 C260.07902,135.042 245.94,109.73 222.089,93.935 C219.889,69.643 208.544,47.116 189.577,29.759 C168.612,10.57 140.791,0 111.245,0 C81.699,0 53.878,10.57 32.907,29.763 C11.687,49.185 -4.55046798e-06,75.081 -4.55046798e-06,102.679 C-0.00650938634,123.854836 6.97084469,144.441738 19.851,161.25 L0.741,208.522 C-0.80681769,212.355166 0.122404699,216.743968 3.09092471,219.620909 C6.05944471,222.49785 10.4752017,223.289135 14.258,221.622 L68.758,197.595 C75.5923012,200.206456 82.6566104,202.170736 89.858,203.462 C97.4610589,215.837134 108.02631,226.124009 120.6,233.394 C135.128812,241.812124 151.608748,246.278945 168.4,246.35 C168.649,246.369 168.9,246.388 169.152,246.388 C180.716353,246.41875 192.192442,244.37471 203.035,240.353 L245.82,259.215 C249.602754,260.881021 254.017755,260.089321 256.985923,257.21272 C259.954092,254.33612 260.883706,249.948087 259.337,246.115 L244.499995,209.406 Z M223.449,211.547 L231.124,230.533 L207.332,220.045 C204.760003,218.911367 201.833277,218.893989 199.248,219.997 C189.859323,223.986558 179.765156,226.050346 169.564,226.066 C169.427,226.06 169.292,226.046 169.153,226.046 C149.132,226.046 130.217,218.222 117.003,205.207 C133.645547,204.443916 149.939944,200.178729 164.822,192.69 C168.094237,191.066952 170.243398,187.812308 170.450995,184.165566 C170.658593,180.518825 168.892674,177.041307 165.82577,175.057392 C162.758866,173.073476 158.863049,172.888534 155.622,174.573 C129.653805,187.529939 99.3220897,188.500051 72.579,177.229 C69.9938195,176.125508 67.0668943,176.142887 64.495,177.277 L28.955,192.943 L40.92,163.343 C42.3397227,159.832835 41.6895076,155.824396 39.233,152.943 C26.859,138.426 20.319,121.043 20.319,102.674 C20.319,57.261 61.108,20.314 111.245,20.314 C161.382,20.314 202.171,57.26 202.171,102.674 C202.134234,117.471016 197.801852,131.939036 189.7,144.321 C187.69921,147.366786 187.482694,151.250798 189.132563,154.500092 C190.782431,157.749385 194.046009,159.866337 197.685642,160.04813 C201.325275,160.229923 204.783559,158.448716 206.749,155.38 C213.915796,144.374605 218.784268,132.034204 221.062,119.1 C232.962,130.754 239.762,146.106 239.762,162.305 C239.724565,176.590171 234.531653,190.381713 225.138,201.144 C222.681025,204.025091 222.030053,208.033444 223.449,211.544 L223.449,211.547 Z M120.9,154.934 C120.9,160.544661 116.351661,165.093 110.741,165.093 L110.741,165.093 C105.130063,165.093 100.5815,160.544437 100.5815,154.9335 C100.5815,149.322563 105.130063,144.774 110.741,144.774 L110.741,144.774 C116.350489,144.774 120.898343,149.320511 120.9,154.93 L120.9,154.934 Z M149.338,78.817 C149.345,78.958 149.347024,79.095 149.347024,79.242 C149.364014,94.5152703 140.249413,108.31946 126.197,114.303 C123.247316,115.606427 121.361168,118.545464 121.405,121.77 L121.405,122.424 C121.405,126.05364 119.46861,129.407565 116.32525,131.222385 C113.18189,133.037205 109.30911,133.037205 106.16575,131.222385 C103.02239,129.407565 101.086,126.05364 101.086,122.424 L101.086,121.77 C101.033913,110.404598 107.778911,100.108172 118.219,95.616 C124.682715,92.8636119 128.918081,86.5615158 129.025,79.537 L129.025,79.243 C129.025,69.4255863 121.066414,61.467 111.249,61.467 C101.431586,61.467 93.473,69.4255863 93.473,79.243 C93.473,84.8539369 88.9244369,89.4025 83.3135,89.4025 C77.7025631,89.4025 73.1533991,84.8539369 73.1533991,79.243 C73.0777235,65.6335031 80.2678214,53.0171163 92.0158533,46.1463106 C103.763885,39.2755049 118.285046,39.1941192 130.109354,45.9328106 C141.933662,52.671502 149.264724,65.2065031 149.341,78.816 L149.338,78.817 Z" id="icon"></path>
        </g>
    </g>
</svg>