<?xml version="1.0" encoding="UTF-8"?>
<svg width="36px" height="36px" viewBox="0 0 36 36" version="1.1" xmlns="http://www.w3.org/2000/svg" xmlns:xlink="http://www.w3.org/1999/xlink">
    <title>star</title>
    <g id="Page-1" stroke="none" stroke-width="1" fill="none" fill-rule="evenodd">
        <g id="Pricing-Final" transform="translate(-341.000000, -3394.000000)" fill-rule="nonzero">
            <g id="Group-13" transform="translate(341.000000, 3279.000000)">
                <g id="Group-8" transform="translate(0.000000, 64.000000)">
                    <g id="star" transform="translate(0.000000, 51.000000)">
                        <rect id="Rectangle" fill="#FFD800" opacity="0" transform="translate(18.000000, 18.000000) rotate(90.000000) translate(-18.000000, -18.000000) " x="0" y="0" width="36" height="36"></rect>
                        <path d="M26.34,31.5 C26.1001151,31.5009652 25.8634973,31.4443827 25.65,31.335 L18,27.33 L10.35,31.335 C9.84320009,31.6014946 9.22889309,31.5562156 8.76664305,31.2182949 C8.30439302,30.8803742 8.07484878,30.3087688 8.175,29.745 L9.675,21.3 L3.495,15.3 C3.10208434,14.9079016 2.9578266,14.3308706 3.12,13.8 C3.29736621,13.2561328 3.76863439,12.8605003 4.335,12.78 L12.885,11.535 L16.65,3.84 C16.9006297,3.32251451 17.4250161,2.99383484 18,2.99383484 C18.5749839,2.99383484 19.0993703,3.32251451 19.35,3.84 L23.16,11.52 L31.71,12.765 C32.2763656,12.8455003 32.7476338,13.2411328 32.925,13.785 C33.0871734,14.3158706 32.9429157,14.8929016 32.55,15.285 L26.37,21.285 L27.87,29.73 C27.9793394,30.3041957 27.7451739,30.8896096 27.27,31.23 C26.9983768,31.420345 26.6713252,31.5152954 26.34,31.5 L26.34,31.5 Z" id="Path" fill="#FFCA00"></path>
                    </g>
                </g>
            </g>
        </g>
    </g>
</svg>