<?xml version="1.0" encoding="UTF-8"?>
<svg width="16px" height="13px" viewBox="0 0 16 13" version="1.1" xmlns="http://www.w3.org/2000/svg" xmlns:xlink="http://www.w3.org/1999/xlink">
    <title>Path</title>
    <g id="Page-1" stroke="none" stroke-width="1" fill="none" fill-rule="evenodd">
        <g id="Pricing-Final" transform="translate(-244.000000, -745.000000)" fill="#FFA800" fill-rule="nonzero">
            <g id="Group-18" transform="translate(212.000000, 365.000000)">
                <g id="Group-16" transform="translate(28.000000, 373.000000)">
                    <g id="checkmark-outline" transform="translate(0.000000, 2.000000)">
                        <path d="M9.86,18 C9.58283494,17.9991084 9.31847178,17.8832232 9.13,17.68 L4.27,12.51 C3.89168495,12.1068321 3.91183213,11.4733151 4.315,11.095 C4.71816787,10.7166849 5.35168495,10.7368321 5.73,11.14 L9.85,15.53 L18.26,6.33 C18.4925515,6.04041485 18.8664394,5.90356737 19.2309842,5.97460808 C19.5955291,6.0456488 19.8906733,6.31287396 19.9974716,6.66858993 C20.10427,7.02430591 20.0051278,7.40990961 19.74,7.67 L10.6,17.67 C10.4132861,17.8769226 10.1486881,17.9965354 9.87,18 L9.86,18 Z" id="Path"></path>
                    </g>
                </g>
            </g>
        </g>
    </g>
</svg>