<?xml version="1.0" encoding="UTF-8"?>
<svg width="225px" height="80px" viewBox="0 0 225 80" version="1.1" xmlns="http://www.w3.org/2000/svg" xmlns:xlink="http://www.w3.org/1999/xlink">
    <title>Artboard</title>
    <g id="Artboard" stroke="none" stroke-width="1" fill="none" fill-rule="evenodd">
        <text id="topic" font-family="Graphik-Regular, Graphik" font-size="46.01" font-weight="normal" letter-spacing="2.19095238" fill="#0A1F44">
            <tspan x="76.557564" y="54">topic</tspan>
        </text>
        <path d="M55.9121176,13 C51.7779188,13.8608588 47.6726018,16.002494 43.5961667,19.4249053 C39.5197315,22.8473167 36.3931586,25.9760019 34.2164482,28.8109608 C33.6823308,31.1965039 33.5426434,33.0869678 33.797386,34.4823523 C34.0521286,35.8777368 34.2538773,37.2049048 34.4026323,38.4638563 C33.5291309,37.5574576 32.9552136,36.8593386 32.6808804,36.3694994 C32.4065472,35.8796601 31.9530735,34.9917727 31.3204594,33.705837 C30.8737831,35.916127 30.6967041,37.3563736 30.7892223,38.0265766 C30.8817405,38.6967797 31.1935378,40.2143587 31.7246142,42.5793139 C34.9198695,37.5883845 38.2069289,32.9832617 41.5857925,28.7639454 C44.964656,24.5446292 48.6021166,20.4045726 52.498174,16.3437758 C42.9524469,27.9690494 35.9884872,37.4851343 31.606295,44.8920305 C27.2241028,52.2989268 24.0220044,58.3793818 22,63.1333955 C22.1973311,63.7985668 22.2658655,64.6133537 22.2056034,65.5777563 C22.1453413,66.5421589 22.2500647,67.3495735 22.5197737,68 C25.8202762,60.4036301 27.8975872,55.6875843 28.7517068,53.8518627 C29.6058263,52.0161411 31.4674835,48.5707587 34.3366783,43.5157153 C35.0909518,43.595123 36.2029486,43.4213894 37.6726687,42.9945144 C39.8772489,42.354202 40.6103671,41.8745809 41.4023076,41.2832278 C41.930268,40.8889924 42.7481827,40.0318699 43.8560518,38.7118605 L37.5788024,38.0357922 L37.9355372,37.4328296 L46.828584,34.5410368 C51.9083876,26.9871569 54.7469199,21.5883786 55.3441811,18.3447018 C55.9414422,15.1010251 56.1307544,13.3194578 55.9121176,13 Z" id="Path" fill="#0A1F44"></path>
    </g>
</svg>