<?xml version="1.0" encoding="UTF-8"?>
<svg width="221px" height="86px" viewBox="0 0 221 86" version="1.1" xmlns="http://www.w3.org/2000/svg" xmlns:xlink="http://www.w3.org/1999/xlink">
    <title>Rectangle-Inverted</title>
    <g id="Rectangle-Inverted" stroke="none" stroke-width="1" fill="none" fill-rule="evenodd">
        <text id="topic" font-family="Graphik-Regular, Graphik" font-size="46.01" font-weight="normal" letter-spacing="2.19095238" fill="#FFFFFF">
            <tspan x="74.557564" y="57">topic</tspan>
        </text>
        <path d="M53.9121176,16 C49.7779188,16.8608588 45.6726018,19.002494 41.5961667,22.4249053 C37.5197315,25.8473167 34.3931586,28.9760019 32.2164482,31.8109608 C31.6823308,34.1965039 31.5426434,36.0869678 31.797386,37.4823523 C32.0521286,38.8777368 32.2538773,40.2049048 32.4026323,41.4638563 C31.5291309,40.5574576 30.9552136,39.8593386 30.6808804,39.3694994 C30.4065472,38.8796601 29.9530735,37.9917727 29.3204594,36.705837 C28.8737831,38.916127 28.6967041,40.3563736 28.7892223,41.0265766 C28.8817405,41.6967797 29.1935378,43.2143587 29.7246142,45.5793139 C32.9198695,40.5883845 36.2069289,35.9832617 39.5857925,31.7639454 C42.964656,27.5446292 46.6021166,23.4045726 50.498174,19.3437758 C40.9524469,30.9690494 33.9884872,40.4851343 29.606295,47.8920305 C25.2241028,55.2989268 22.0220044,61.3793818 20,66.1333955 C20.1973311,66.7985668 20.2658655,67.6133537 20.2056034,68.5777563 C20.1453413,69.5421589 20.2500647,70.3495735 20.5197737,71 C23.8202762,63.4036301 25.8975872,58.6875843 26.7517068,56.8518627 C27.6058263,55.0161411 29.4674835,51.5707587 32.3366783,46.5157153 C33.0909518,46.595123 34.2029486,46.4213894 35.6726687,45.9945144 C37.8772489,45.354202 38.6103671,44.8745809 39.4023076,44.2832278 C39.930268,43.8889924 40.7481827,43.0318699 41.8560518,41.7118605 L35.5788024,41.0357922 L35.9355372,40.4328296 L44.828584,37.5410368 C49.9083876,29.9871569 52.7469199,24.5883786 53.3441811,21.3447018 C53.9414422,18.1010251 54.1307544,16.3194578 53.9121176,16 Z" id="Path" fill="#FFFFFF"></path>
    </g>
</svg>