<?xml version="1.0" encoding="UTF-8"?>
<svg width="48px" height="36px" viewBox="0 0 48 36" version="1.1" xmlns="http://www.w3.org/2000/svg" xmlns:xlink="http://www.w3.org/1999/xlink">
    <!-- Generator: Sketch 54.1 (76490) - https://sketchapp.com -->
    <title>loan-icon</title>
    <desc>Created with Sketch.</desc>
    <g id="Page-1" stroke="none" stroke-width="1" fill="none" fill-rule="evenodd">
        <g id="v1" transform="translate(-461.000000, -103.000000)">
            <g id="Group" transform="translate(461.000000, 101.000000)">
                <g id="loan-icon" transform="translate(0.000000, 2.000000)">
                    <path d="M8.7273592,15.6351273 L8.7261556,26.1177918 C8.7261556,30.8694558 6.90149722,32.8188723 3.73301887,32.0882268 L27.1586957,38.6233076 C31.4007857,39.6421384 33.8380767,36.7177052 33.8380767,33.793889 L33.8380767,22.1375018 L33.8404839,9.88205531 C33.8404839,5.13100839 35.6645405,3.18097485 38.8330189,3.91223743 L15.4067403,-2.62346044 C14.8181796,-2.76477616 14.2639216,-2.83018868 13.7463733,-2.83018868 C10.535769,-2.83018868 8.7273592,-0.311806751 8.7273592,2.20657518 L8.7273592,15.6351273 Z" id="Clip-5" fill="#FFBC95" transform="translate(21.283019, 18.000000) rotate(-270.000000) translate(-21.283019, -18.000000) "></path>
                    <ellipse id="Oval-5" fill="#1D2C4C" transform="translate(20.830189, 18.450000) rotate(-351.000000) translate(-20.830189, -18.450000) " cx="20.8301887" cy="18.45" rx="3.62209199" ry="5.85090144"></ellipse>
                    <ellipse id="Oval-7" fill="#1C85E8" cx="39.8490566" cy="8.1" rx="8.1509434" ry="8.1"></ellipse>
                    <path d="M38.9626195,11.0822629 C39.1035884,11.2210291 39.3072101,11.3135399 39.5108318,11.3135399 C39.7144535,11.3135399 39.9180752,11.2364476 40.0590441,11.0822629 L44.0407086,7.23952844 C44.3539728,6.93115901 44.3539728,6.45318641 44.0407086,6.14481699 C43.7274445,5.83644757 43.241885,5.83644757 42.9286208,6.14481699 L39.5108318,9.43248645 L37.4454467,7.62487117 C37.1321825,7.31650175 36.646623,7.31650175 36.3333588,7.62487117 C36.0200947,7.93324059 36.0200947,8.41121319 36.3333588,8.71958261 L38.9626195,11.0822629 Z" id="Shape" fill="#FFFFFF" fill-rule="nonzero"></path>
                </g>
            </g>
        </g>
    </g>
</svg>