<?xml version="1.0" encoding="UTF-8"?>
<svg width="23px" height="23px" viewBox="0 0 23 23" version="1.1" xmlns="http://www.w3.org/2000/svg" xmlns:xlink="http://www.w3.org/1999/xlink">
    <!-- Generator: Sketch 49.2 (51160) - http://www.bohemiancoding.com/sketch -->
    <title>Group 5</title>
    <desc>Created with Sketch.</desc>
    <defs></defs>
    <g id="Page-1" stroke="none" stroke-width="1" fill="none" fill-rule="evenodd">
        <g id="Home-value---concept-2-+-feedback-Copy-3" transform="translate(-238.000000, -1687.000000)">
            <g id="Group-5" transform="translate(239.000000, 1688.000000)">
                <path d="M9.3018018,12.7032787 L9.3018018,12.1218579 C9.3018018,10.9131148 10.1373874,10.163388 10.8941441,9.4442623 C11.4774775,8.87814208 11.9977477,8.37322404 11.9977477,7.71530055 C11.9977477,6.93497268 11.5563063,6.43005464 10.5945946,6.43005464 C9.61711712,6.43005464 8.93918919,7.10327869 8.82882883,8.15901639 L7,8.15901639 C7.11036036,6.15464481 8.57657658,4.9 10.6891892,4.9 C12.9436937,4.9 14,6.09344262 14,7.57759563 C14,8.66393443 13.3220721,9.36775956 12.6126126,10.0409836 C11.8716216,10.7295082 11.1148649,11.3568306 11.0675676,12.2136612 L11.0675676,12.7032787 L9.3018018,12.7032787 Z M10.1689189,16.1 C9.45945946,16.1 8.87612613,15.5797814 8.87612613,14.9218579 C8.87612613,14.2486339 9.45945946,13.7284153 10.1689189,13.7284153 C10.8626126,13.7284153 11.4301802,14.2486339 11.4301802,14.9218579 C11.4301802,15.5797814 10.8626126,16.1 10.1689189,16.1 Z" id="?" fill="#1C85E8"></path>
                <circle id="Oval" stroke="#1C85E8" stroke-width="1.39999998" cx="10.5" cy="10.5" r="10.5"></circle>
            </g>
        </g>
    </g>
</svg>