<?xml version="1.0" encoding="UTF-8"?>
<svg width="328px" height="229px" viewBox="0 0 328 229" version="1.1" xmlns="http://www.w3.org/2000/svg" xmlns:xlink="http://www.w3.org/1999/xlink">
    <!-- Generator: Sketch 49.2 (51160) - http://www.bohemiancoding.com/sketch -->
    <title>Group 7</title>
    <desc>Created with Sketch.</desc>
    <defs>
        <filter x="-16.5%" y="-29.8%" width="132.9%" height="159.5%" filterUnits="objectBoundingBox" id="filter-1">
            <feGaussianBlur stdDeviation="14.4810268" in="SourceGraphic"></feGaussianBlur>
        </filter>
        <linearGradient x1="23.6300833%" y1="57.9792086%" x2="50%" y2="100%" id="linearGradient-2">
            <stop stop-color="#529DE5" offset="0%"></stop>
            <stop stop-color="#1C60A0" offset="100%"></stop>
        </linearGradient>
        <linearGradient x1="50%" y1="0%" x2="50%" y2="100%" id="linearGradient-3">
            <stop stop-color="#4F9FEA" offset="0%"></stop>
            <stop stop-color="#1C85E8" offset="100%"></stop>
        </linearGradient>
        <linearGradient x1="78.5067886%" y1="78.3082004%" x2="14.4458551%" y2="17.7177727%" id="linearGradient-4">
            <stop stop-color="#FFFFFF" stop-opacity="0.425696332" offset="0%"></stop>
            <stop stop-color="#FFFFFF" offset="100%"></stop>
        </linearGradient>
    </defs>
    <g id="Page-1" stroke="none" stroke-width="1" fill="none" fill-rule="evenodd">
        <g id="Home-value---concept-2-+-feedback-Copy-3" transform="translate(-206.000000, -1405.000000)">
            <g id="Group-7" transform="translate(238.000000, 1405.000000)">
                <path d="M155.280823,49.6242136 L260.0601,109.111688 C265.029221,111.960634 266.449043,120.206533 257.425428,125.166309 L141.628316,189.331521 C132.604701,194.291297 112.445623,193.644706 107.476501,190.795761 L4.38594537,130.78883 C-0.583175965,127.939885 -2.91021217,119.557484 6.11340289,114.597708 L125.168152,50.249861 C134.191767,45.290085 150.311702,46.7752682 155.280823,49.6242136 Z" id="Rectangle-3" fill="#081929" opacity="0.0763700181" filter="url(#filter-1)"></path>
                <path d="M263,70 C262.876156,74.3552823 262.917889,76.5298673 256.524141,79.8178806 L141.121853,144.312678 C132.129005,149.29793 112.038661,148.648018 107.086483,145.784439 L4.34742614,85.4692818 C-0.604752391,82.6057027 0.0954337804,79.907191 0,76.1079429 L263,70 Z" id="Rectangle-3" fill="url(#linearGradient-2)"></path>
                <path d="M154.692638,2.60623957 L259.075024,61.6862659 C264.025323,64.515698 265.439767,72.7051183 256.450332,77.6309232 L141.091845,141.356648 C132.10241,146.282453 112.019692,145.64029 107.069393,142.810858 L4.36933194,83.2149339 C-0.580966965,80.3855018 -2.89918864,72.0605151 6.09024606,67.1347102 L124.69403,3.22760167 C133.683465,-1.69820324 149.742339,-0.223192567 154.692638,2.60623957 Z" id="Rectangle-3" fill="url(#linearGradient-3)"></path>
                <path d="M50.8414271,59.2514245 L147.548777,114.555191 C147.967627,114.795562 148.309383,115.441995 147.548777,115.86046 L145.983896,116.807048 C145.223289,117.225514 144.027828,116.868258 143.608977,116.627887 L47.4512232,61.3099554 C47.0323726,61.0695843 46.6906166,60.6744628 47.4512232,60.2559969 L48.8182421,59.2514245 C49.5788486,58.8329586 50.4225765,59.0110535 50.8414271,59.2514245 Z" id="Rectangle-3" fill="#D0D3E0" opacity="0.240149457"></path>
                <path d="M39.8414271,64.2514245 L136.548777,119.555191 C136.967627,119.795562 137.309383,120.441995 136.548777,120.86046 L134.983896,121.807048 C134.223289,122.225514 133.027828,121.868258 132.608977,121.627887 L36.4512232,66.3099554 C36.0323726,66.0695843 35.6906166,65.6744628 36.4512232,65.2559969 L37.8182421,64.2514245 C38.5788486,63.8329586 39.4225765,64.0110535 39.8414271,64.2514245 Z" id="Rectangle-3" fill="#D0D3E0" opacity="0.240149457"></path>
                <path d="M29.8414271,69.2514245 L126.548777,124.555191 C126.967627,124.795562 127.309383,125.441995 126.548777,125.86046 L124.983896,126.807048 C124.223289,127.225514 123.027828,126.868258 122.608977,126.627887 L26.4512232,71.3099554 C26.0323726,71.0695843 25.6906166,70.6744628 26.4512232,70.2559969 L27.8182421,69.2514245 C28.5788486,68.8329586 29.4225765,69.0110535 29.8414271,69.2514245 Z" id="Rectangle-3" fill="#D0D3E0" opacity="0.240149457"></path>
                <path d="M164.716823,51.3114276 L185.451144,63.598913 C185.960623,63.8966492 186.376326,64.6973549 185.451144,65.2156888 L182.503452,66.7609998 C181.57827,67.2793337 180.124142,66.8368172 179.614663,66.539081 L159.548856,54.2340498 C159.039377,53.9363135 158.623674,53.4468952 159.548856,52.9285614 L162.255873,51.3114276 C163.181055,50.7930938 164.207344,51.0136914 164.716823,51.3114276 Z" id="Rectangle-3" fill="#FFFFFF" opacity="0.105298913"></path>
                <path d="M177.569656,44.446291 L219.177251,68.126076 C219.940973,68.5527466 220.564122,69.700197 219.177251,70.4429948 L214.75859,72.6575011 C213.37172,73.4002988 211.191947,72.7661511 210.428225,72.3394806 L169.822749,48.6345514 C169.059027,48.2078809 168.435878,47.5065205 169.822749,46.7637227 L173.880632,44.446291 C175.267503,43.7034932 176.805934,44.0196205 177.569656,44.446291 Z" id="Rectangle-3" fill="#FFFFFF" opacity="0.254472373"></path>
                <path d="M93.6133036,53.4513346 L139.173061,80.0709949 C139.940672,80.5024874 140.566995,81.6629054 139.173061,82.4140976 L134.731894,84.6536304 C133.33796,85.4048227 131.147084,84.7635083 130.379473,84.3320159 L85.8269391,57.6869273 C85.059328,57.2554349 84.4330051,56.5461483 85.8269391,55.7949561 L89.905491,53.4513346 C91.2994251,52.7001424 92.8456925,53.0198422 93.6133036,53.4513346 Z" id="Rectangle-3" fill="url(#linearGradient-4)"></path>
                <path d="M70.3931124,59 L71.4341864,56.3628692 C68.1328962,56.1097046 67.4692497,54.1054852 68.3613698,51.4472574 L71.2710954,51.4472574 C70.9256592,52.6708861 70.9470818,53.6624473 72.400303,53.9156118 L74.0077213,49.8438819 C71.0899472,49.3164557 70.0788221,48.092827 71.1781963,45.3080169 C72.1359843,42.8818565 74.652663,41.0886076 77.5473729,40.8776371 L78.2886176,39 L79.6844994,39 L78.9349261,40.8987342 C81.5087849,41.1518987 82.5545858,42.5864979 81.7161212,45.3080169 L78.9046972,45.3080169 C79.1608412,44.2109705 78.9358484,43.535865 77.9771381,43.3248945 L76.4863201,47.1012658 C79.2438086,47.5864979 80.6361273,48.6413502 79.478453,51.5738397 C78.479022,54.1054852 76.0280113,56.1308017 72.8300682,56.3628692 L71.7889942,59 L70.3931124,59 Z M76.4271414,51.9324895 C76.8269139,50.9198312 76.6335939,50.4135021 75.3119886,50.0759494 L73.7961849,53.9156118 C75.0197686,53.7046414 76.0190404,52.9662447 76.4271414,51.9324895 Z M74.1175523,45.0337553 C73.734437,46.0042194 73.8604475,46.5316456 75.1903813,46.8481013 L76.5979134,43.2827004 C75.3713265,43.4514768 74.4673531,44.1476793 74.1175523,45.0337553 Z" id="$" fill="#FFFFFF" transform="translate(75.000000, 49.000000) rotate(37.000000) translate(-75.000000, -49.000000) "></path>
                <path d="M142.81935,9.82680704 L175.761319,28.5694361 C177.323581,29.467049 177.769964,32.065072 174.932994,33.6277412 L138.527084,53.8441779 C135.690114,55.406847 129.352222,55.2031266 127.789961,54.3055136 L95.3789146,35.3992204 C93.816653,34.5016075 93.0850469,31.8605772 95.9220168,30.2979081 L133.352108,10.0239288 C136.189078,8.46125966 141.257088,8.92919408 142.81935,9.82680704 Z" id="Rectangle-3" fill="#FFFFFF" opacity="0.194180254"></path>
                <path d="M125.708075,31.8578975 L129.159298,29.5183614 L124.408716,37.200373 C123.915858,38.2801914 124.320622,39 125.420684,39 C126.520747,39 127.58259,38.2801914 128.075447,37.200373 L134.468921,25.9188965 L139.778973,22.3194316 L141.803028,25.9188965 L135.409555,37.200373 C134.916697,38.2801914 135.321461,39 136.421524,39 C137.521586,39 138.583429,38.2801914 139.076287,37.200373 L143.826869,29.5183614 L145.14244,31.8578975 C145.344881,32.2179073 145.629315,32.3978067 146.179346,32.3978067 C146.729377,32.3978067 147.178247,32.2179073 147.709109,31.8578975 C148.770952,31.1380889 149.26381,30.0582705 148.859142,29.338251 L142.786976,18.5398565 C142.382212,17.8200478 141.282149,17.8200478 140.220092,18.5398565 L124.290891,29.3380401 C123.229048,30.0578487 122.73619,31.1376671 123.140858,31.8576866 C123.545525,32.5777061 124.646232,32.5777061 125.708075,31.8578975 Z" id="Shape" fill="#FFFFFF" transform="translate(136.000000, 28.500000) rotate(30.000000) translate(-136.000000, -28.500000) "></path>
            </g>
        </g>
    </g>
</svg>