<?xml version="1.0" encoding="UTF-8"?>
<svg width="328px" height="233px" viewBox="0 0 328 233" version="1.1" xmlns="http://www.w3.org/2000/svg" xmlns:xlink="http://www.w3.org/1999/xlink">
    <!-- Generator: Sketch 49.2 (51160) - http://www.bohemiancoding.com/sketch -->
    <title>Group 10</title>
    <desc>Created with Sketch.</desc>
    <defs>
        <filter x="-16.5%" y="-29.8%" width="132.9%" height="159.5%" filterUnits="objectBoundingBox" id="filter-1">
            <feGaussianBlur stdDeviation="14.4810268" in="SourceGraphic"></feGaussianBlur>
        </filter>
        <path d="M155.280823,2.62421364 L260.0601,62.1116884 C265.029221,64.9606339 266.449043,73.2065329 257.425428,78.1663089 L141.628316,142.331521 C132.604701,147.291297 112.445623,146.644706 107.476501,143.795761 L4.38594537,83.78883 C-0.583175965,80.9398846 -2.91021217,72.5574842 6.11340289,67.5977082 L125.168152,3.24986099 C134.191767,-1.70991499 150.311702,-0.224731826 155.280823,2.62421364 Z" id="path-2"></path>
        <filter x="0.0%" y="0.0%" width="100.0%" height="100.0%" filterUnits="objectBoundingBox" id="filter-3">
            <feGaussianBlur stdDeviation="0" in="SourceGraphic"></feGaussianBlur>
        </filter>
        <ellipse id="path-4" cx="16" cy="11" rx="16" ry="11"></ellipse>
    </defs>
    <g id="Page-1" stroke="none" stroke-width="1" fill="none" fill-rule="evenodd">
        <g id="Home-value---concept-2-+-feedback-Copy-3" transform="translate(-206.000000, -1091.000000)">
            <g id="Group-10" transform="translate(238.000000, 1091.000000)">
                <path d="M264,70 C264,73.9274171 263.917578,77.5298673 257.499595,80.8178806 L141.659874,145.312678 C132.632938,150.29793 112.466443,149.648018 107.495493,146.784439 L4.36700412,86.4692818 C0.00309906735,83.5027267 -0.0221063045,82.3241662 0.00309906735,77.2290226 L264,70 Z" id="Rectangle-3" fill="#D0D3E0"></path>
                <path d="M155.280823,53.6242136 L260.0601,113.111688 C265.029221,115.960634 266.449043,124.206533 257.425428,129.166309 L141.628316,193.331521 C132.604701,198.291297 112.445623,197.644706 107.476501,194.795761 L4.38594537,134.78883 C-0.583175965,131.939885 -2.91021217,123.557484 6.11340289,118.597708 L125.168152,54.249861 C134.191767,49.290085 150.311702,50.7752682 155.280823,53.6242136 Z" id="Rectangle-3" fill="#081929" opacity="0.0763700181" filter="url(#filter-1)"></path>
                <g id="Rectangle-3" filter="url(#filter-3)">
                    <use fill="#FFFFFF" fill-rule="evenodd" xlink:href="#path-2"></use>
                    <path stroke="#D0D3E0" stroke-width="1" d="M155.033963,3.05902425 L155.032132,3.05797951 C149.1442,-0.317747519 133.235071,-0.613522895 125.405893,3.68972363 L6.3542425,68.035882 C-1.27171495,72.2274438 -1.08015147,80.0786059 4.63747662,83.356705 L107.725192,143.361995 C113.346312,146.58475 133.401446,146.282821 141.385975,141.894176 L257.184589,77.7281351 C264.934034,73.4686987 265.322166,65.7049357 259.81324,62.546499 L155.033963,3.05902425 Z"></path>
                </g>
                <path d="M139.944718,16.46895 L187.158123,42.9536232 C187.9396,43.4019566 188.577237,44.6076653 187.158123,45.3881763 L180.395164,49.2967589 C178.017835,50.5167312 175.811342,49.8718751 175.029865,49.4235417 L128.841877,22.9124478 C128.0604,22.4641144 127.422763,21.7271446 128.841877,20.9466336 L136.169929,16.46895 C137.589042,15.688439 139.163241,16.0206166 139.944718,16.46895 Z" id="Rectangle-3" fill="#D0D3E0" opacity="0.181272645"></path>
                <path d="M89.5484355,44.467782 L137.151181,70.8864855 C137.939102,71.3337021 138.581997,72.5364076 137.151181,73.3149744 L129.827235,77.2985106 C127.430301,78.5154441 125.205613,77.8721942 124.417691,77.4249776 L77.848819,50.9799191 C77.0608978,50.5327025 76.4180031,49.7975683 77.848819,49.0190015 L85.7425185,44.467782 C87.1733344,43.6892151 88.7605142,44.0205653 89.5484355,44.467782 Z" id="Rectangle-3" fill="#D0D3E0" opacity="0.181272645"></path>
                <path d="M105.854753,35.4673047 L130.164464,48.9783461 C130.940055,49.4251065 131.572889,50.6265848 130.164464,51.4043573 L123.452442,55.2992263 C121.093018,56.5149182 118.903144,55.8723246 118.127553,55.4255642 L94.8355358,41.8881948 C94.0599448,41.4414344 93.4271108,40.7070503 94.8355358,39.9292778 L102.108395,35.4673047 C103.51682,34.6895322 105.079162,35.0205443 105.854753,35.4673047 Z" id="Rectangle-3" fill="#D0D3E0" opacity="0.181272645"></path>
                <path d="M122.991201,25.4689253 L198.154847,67.9539952 C198.939365,68.402305 199.579483,69.60795 198.154847,70.3884198 L191.36557,74.2967961 C188.978989,75.5167039 186.76391,74.8718819 185.979392,74.4235721 L111.845153,31.9120829 C111.060635,31.4637731 110.420517,30.7268422 111.845153,29.9463724 L119.201722,25.4689253 C120.626358,24.6884555 122.206682,25.0206155 122.991201,25.4689253 Z" id="Rectangle-3" fill="#D0D3E0" opacity="0.181272645"></path>
                <g id="Oval-13" transform="translate(40.000000, 66.000000)">
                    <mask id="mask-5" fill="white">
                        <use xlink:href="#path-4"></use>
                    </mask>
                    <use id="Mask" fill="#1C85E8" xlink:href="#path-4"></use>
                    <ellipse fill="#FFFFFF" mask="url(#mask-5)" cx="2.8" cy="19.5555556" rx="15.6" ry="10.5925926"></ellipse>
                    <ellipse fill="#FFFFFF" mask="url(#mask-5)" cx="20.4" cy="7.74074074" rx="6.8" ry="4.48148148"></ellipse>
                </g>
                <path d="M74.0816203,93.2724992 L92.5121279,104.024049 C92.9649981,104.284568 93.3345119,104.985186 92.5121279,105.438728 L89.8919576,106.790875 C89.0695735,107.244417 87.777015,106.857215 87.3241448,106.596696 L69.4878721,95.8297935 C69.0350019,95.5692743 68.6654881,95.1410333 69.4878721,94.6874912 L71.8941094,93.2724992 C72.7164934,92.818957 73.6287501,93.01198 74.0816203,93.2724992 Z" id="Rectangle-3" fill="#D0D3E0" opacity="0.30638587"></path>
                <path d="M80.9823975,89.2255607 L119.594134,110.959174 C119.970882,111.174818 120.278284,111.754753 119.594134,112.130171 L116.659443,113.826897 C115.975293,114.202316 114.9,113.88181 114.523252,113.666166 L76.4058661,91.9198448 C76.0291185,91.7042005 75.7217159,91.3497248 76.4058661,90.9743061 L79.1625837,89.2255607 C79.8467338,88.850142 80.6056499,89.0099164 80.9823975,89.2255607 Z" id="Rectangle-3" fill="#D0D3E0"></path>
                <ellipse id="Oval-13" stroke="#FFFFFF" stroke-width="2" fill="#D0D3E0" cx="144" cy="81" rx="6" ry="4"></ellipse>
            </g>
        </g>
    </g>
</svg>