<?xml version="1.0" encoding="UTF-8"?>
<svg width="450px" height="431px" viewBox="0 0 450 431" version="1.1" xmlns="http://www.w3.org/2000/svg" xmlns:xlink="http://www.w3.org/1999/xlink">
    <!-- Generator: Sketch 49.2 (51160) - http://www.bohemiancoding.com/sketch -->
    <title>Group 6</title>
    <desc>Created with Sketch.</desc>
    <defs>
        <linearGradient x1="98.5370698%" y1="96.8429183%" x2="9.99563816%" y2="0.891525169%" id="linearGradient-1">
            <stop stop-color="#FFFFFF" stop-opacity="0" offset="0%"></stop>
            <stop stop-color="#E1E5EC" offset="100%"></stop>
        </linearGradient>
        <linearGradient x1="19.9848799%" y1="27.0625902%" x2="98.5370698%" y2="96.8429183%" id="linearGradient-2">
            <stop stop-color="#FFFFFF" stop-opacity="0" offset="0%"></stop>
            <stop stop-color="#E1E5EC" offset="100%"></stop>
        </linearGradient>
        <linearGradient x1="9.99563816%" y1="0.891525169%" x2="97.1676045%" y2="95.3588435%" id="linearGradient-3">
            <stop stop-color="#FFFFFF" stop-opacity="0" offset="0%"></stop>
            <stop stop-color="#DADCE7" offset="100%"></stop>
        </linearGradient>
        <filter x="-8.8%" y="-13.1%" width="117.6%" height="126.1%" filterUnits="objectBoundingBox" id="filter-4">
            <feGaussianBlur stdDeviation="3.96205357" in="SourceGraphic"></feGaussianBlur>
        </filter>
        <path d="M140.278202,93.5450884 C141.107951,94.0433143 141.976077,93.2815008 141.976077,91.9382745 C141.976077,90.5950483 141.303433,89.1022564 140.473684,88.6040304 C139.643936,88.1058045 138.971292,88.7908126 138.971292,90.1340388 C138.971292,91.4772651 139.448454,93.0468624 140.278202,93.5450884 Z" id="path-5"></path>
        <filter x="-23.6%" y="-52.6%" width="147.2%" height="205.3%" filterUnits="objectBoundingBox" id="filter-6">
            <feGaussianBlur stdDeviation="10" in="SourceGraphic"></feGaussianBlur>
        </filter>
        <linearGradient x1="98.5370698%" y1="96.8429183%" x2="9.99563816%" y2="0.891525169%" id="linearGradient-7">
            <stop stop-color="#FFFFFF" offset="0%"></stop>
            <stop stop-color="#FDFDFD" offset="47.1902962%"></stop>
            <stop stop-color="#ECF0F6" offset="100%"></stop>
        </linearGradient>
        <path d="M108.397164,-3.19151093 L285.373377,114.101551 C286.064949,114.559899 286.495315,115.32161 286.531036,116.150513 L296.259557,341.896554 C296.3366,343.684297 294.949803,345.196005 293.16206,345.273048 C292.554942,345.299211 291.952703,345.154109 291.424121,344.854312 L111.245246,242.661773 C106.564478,240.006969 103.678295,235.035105 103.694136,229.653904 L104.373238,-1.03858082 C104.377452,-2.47009663 105.541341,-3.62715334 106.972857,-3.6229393 C107.479591,-3.6214476 107.974774,-3.47145465 108.397164,-3.19151093 Z" id="path-8"></path>
        <linearGradient x1="45.3122437%" y1="34.1208215%" x2="54.0247994%" y2="61.3336391%" id="linearGradient-10">
            <stop stop-color="#B1B4C3" offset="0%"></stop>
            <stop stop-color="#D5D8E4" stop-opacity="0" offset="100%"></stop>
        </linearGradient>
        <linearGradient x1="96.9506221%" y1="53.8889104%" x2="79.0612481%" y2="53.888911%" id="linearGradient-11">
            <stop stop-color="#FCFCFC" offset="0%"></stop>
            <stop stop-color="#FFFFFF" offset="100%"></stop>
        </linearGradient>
        <linearGradient x1="78.0363199%" y1="37.2253212%" x2="32.1403333%" y2="42.2387846%" id="linearGradient-12">
            <stop stop-color="#FFFFFF" offset="0%"></stop>
            <stop stop-color="#D6D8E4" offset="100%"></stop>
        </linearGradient>
        <polygon id="path-13" points="0 0 95.9481361 68.2310968 95.9481361 144.6046 0 87.3764656"></polygon>
        <linearGradient x1="50%" y1="19.0149813%" x2="50%" y2="79.7650712%" id="linearGradient-15">
            <stop stop-color="#F2F5FF" offset="0%"></stop>
            <stop stop-color="#FFFFFF" offset="100%"></stop>
        </linearGradient>
        <polygon id="path-16" points="0 0.413988647 42.1088714 24.0401182 42.1088714 65.0287123 0.0680133354 41.3294967"></polygon>
        <linearGradient x1="50%" y1="0%" x2="50%" y2="100%" id="linearGradient-18">
            <stop stop-color="#FFFFFF" offset="0%"></stop>
            <stop stop-color="#D0D3E0" offset="100%"></stop>
        </linearGradient>
        <path d="M4.86223663,14.0462949 C7.54757577,15.4384584 9.72447326,13.5243805 9.72447326,9.77108246 C9.72447326,6.01778439 7.54757577,1.8465637 4.86223663,0.454400293 C2.17689749,-0.937763117 0,0.976314711 0,4.72961278 C0,8.48291085 2.17689749,12.6541315 4.86223663,14.0462949 Z" id="path-19"></path>
    </defs>
    <g id="Page-1" stroke="none" stroke-width="1" fill="none" fill-rule="evenodd">
        <g id="Home-value---concept-2-+-feedback-Copy-3" transform="translate(-755.000000, -148.000000)">
            <g id="Group-6" transform="translate(752.000000, 148.000000)">
                <g id="Group-12" transform="translate(0.000000, 143.000000)">
                    <path d="M86.8742302,86.9330053 L201.687408,163.026786 C202.378981,163.485134 202.809346,164.246845 202.845068,165.075748 L209.146969,311.308593 C209.224011,313.096336 207.837215,314.608044 206.049472,314.685086 C205.442354,314.71125 204.840115,314.566148 204.311533,314.266351 L89.9677417,249.413674 C85.2869735,246.75887 82.4007902,241.787006 82.4166311,236.405805 L82.8503049,89.0859354 C82.8545189,87.6544196 84.0184079,86.4973629 85.4499237,86.5015769 C85.9566577,86.5030686 86.4518406,86.6530616 86.8742302,86.9330053 Z" id="Mask" fill="url(#linearGradient-1)" opacity="0.327672101" transform="translate(145.783298, 200.594828) rotate(-60.000000) translate(-145.783298, -200.594828) "></path>
                    <path d="M261.758769,112.497077 L358.462247,176.908831 C358.806713,177.138271 359.020876,177.518437 359.038608,177.931941 L364.356291,301.943301 C364.394622,302.837181 363.701062,303.592887 362.807182,303.631217 C362.502559,303.644279 362.200433,303.571109 361.935542,303.420119 L263.133903,247.102397 C260.801364,245.772831 259.364363,243.291314 259.372227,240.606464 L259.744326,113.571913 C259.746422,112.856155 260.328358,112.277618 261.044116,112.279715 C261.298504,112.28046 261.547047,112.356055 261.758769,112.497077 Z" id="Mask" fill="url(#linearGradient-2)" opacity="0.525362319" transform="translate(311.865001, 207.956207) rotate(-60.000000) translate(-311.865001, -207.956207) "></path>
                    <path d="M124.435229,-0.711961405 L301.464217,116.164086 C301.938648,116.477309 302.234098,116.999048 302.25867,117.567018 L311.998014,342.693598 C312.050915,343.916405 311.102518,344.950571 309.87971,345.003472 C309.465565,345.021389 309.054696,344.92279 308.693784,344.718879 L126.179737,241.60068 C122.9698,239.787105 120.989203,236.381691 121.000098,232.694872 L121.685491,0.762359804 C121.688384,-0.216796957 122.484493,-1.00821466 123.46365,-1.00532112 C123.809177,-1.00430004 124.146876,-0.902334994 124.435229,-0.711961405 Z" id="Mask" stroke="#1D2C4C" stroke-width="1.89999998" opacity="0.397984601" stroke-linecap="round" stroke-dasharray="2.849999964237213,7.599999904632568" transform="translate(216.500000, 172.000000) rotate(-60.000000) translate(-216.500000, -172.000000) "></path>
                    <g id="Group" opacity="0.371490036" fill="url(#linearGradient-3)">
                        <path d="M25.1383863,2.24737421 L58.3178256,23.345381 C59.9682087,24.3948198 61.0035314,26.1827798 61.0921658,28.1365531 L62.9531765,69.1589011 C63.0282637,70.814053 61.7473682,72.216689 60.0922163,72.2917763 C59.5280377,72.3173707 58.9680924,72.1831937 58.4767861,71.9046786 L23.8268349,52.2620761 C21.4653758,50.923396 20.0186365,48.406534 20.0503539,45.6922113 L20.5288435,4.74386455 C20.5482028,3.0871234 21.9069507,1.7597632 23.5636919,1.77912254 C24.1219344,1.78564572 24.6672824,1.94781058 25.1383863,2.24737421 Z" id="Mask" transform="translate(41.503079, 37.036886) rotate(-60.000000) translate(-41.503079, -37.036886) "></path>
                    </g>
                </g>
                <g id="Group-11" transform="translate(17.000000, 0.000000)">
                    <g id="Group-5" transform="translate(76.000000, 40.000000)">
                        <path d="M5.77033493,0.632753406 L130.15311,69.6244722 C132.277689,70.8903723 134,73.6358138 134,75.7565872 L134,157.036587 C134,159.157361 132.277689,159.850372 130.15311,158.584472 L5.77033493,89.5927534 C3.64575627,88.3268532 1.92344498,85.5814118 1.92344498,83.4606384 L1.92344498,2.18063839 C1.92344498,0.059864953 3.64575627,-0.633146761 5.77033493,0.632753406 Z" id="Rectangle-41" fill="#D0D3E0" opacity="0.441576087"></path>
                        <path d="M3.84688995,1.27275341 L128.229665,70.2644722 C130.354244,71.5303723 132.076555,74.2758138 132.076555,76.3965872 L132.076555,157.676587 C132.076555,159.797361 130.354244,160.490372 128.229665,159.224472 L3.84688995,90.2327534 C1.7223113,88.9668532 0,86.2214118 0,84.1006384 L0,2.82063839 C0,0.699864953 1.7223113,0.00685323908 3.84688995,1.27275341 Z" id="Rectangle-41" fill="#FFFFFF"></path>
                        <path d="M10.4824103,26.0706686 C12.2528925,27.0537769 14.1052632,25.5505529 14.1052632,22.900075 C14.1052632,20.2495971 12.6700037,17.3039935 10.8995215,16.3208852 C9.12903932,15.337777 7.6937799,16.6894471 7.6937799,19.339925 C7.6937799,21.9904029 8.71192807,25.0875603 10.4824103,26.0706686 Z" id="Oval-5" fill="#D0D3E0" opacity="0.611639493"></path>
                        <path d="M82.8487488,73.5248023 C84.9733275,74.7045322 87.1961722,72.9006634 87.1961722,69.72009 C87.1961722,66.5395165 85.473861,63.0047922 83.3492823,61.8250623 C81.2247036,60.6453324 79.5023923,62.2673366 79.5023923,65.44791 C79.5023923,68.6284835 80.7241701,72.3450724 82.8487488,73.5248023 Z" id="Oval-5" fill="#D0D3E0" opacity="0.293987772"></path>
                        <path d="M82.8487488,92.7248023 C84.9733275,93.9045322 87.1961722,92.1006634 87.1961722,88.92009 C87.1961722,85.7395165 85.473861,82.2047922 83.3492823,81.0250623 C81.2247036,79.8453324 79.5023923,81.4673366 79.5023923,84.64791 C79.5023923,87.8284835 80.7241701,91.5450724 82.8487488,92.7248023 Z" id="Oval-5" fill="#D0D3E0" opacity="0.293987772"></path>
                        <path d="M82.8487488,111.924802 C84.9733275,113.104532 87.1961722,111.300663 87.1961722,108.12009 C87.1961722,104.939516 85.473861,101.404792 83.3492823,100.225062 C81.2247036,99.0453324 79.5023923,100.667337 79.5023923,103.84791 C79.5023923,107.028484 80.7241701,110.745072 82.8487488,111.924802 Z" id="Oval-5" fill="#D0D3E0" opacity="0.293987772"></path>
                        <polygon id="Rectangle-17" fill="#D0D3E0" points="8.33492823 33.92 19.2344498 40.0676597 19.2344498 77.8276597 8.33492823 71.68"></polygon>
                        <polygon id="Rectangle-17" fill="#D0D3E0" opacity="0.365319293" points="21.1578947 60.16 32.0574163 66.3076597 32.0574163 84.8676597 21.1578947 78.72"></polygon>
                        <polygon id="Rectangle-17" fill="#D0D3E0" points="46.8038278 81.28 57.7033493 87.4276597 57.7033493 99.5876597 46.8038278 93.44"></polygon>
                        <polygon id="Rectangle-17" fill="#D0D3E0" opacity="0.366847826" points="59.6267943 75.52 70.5263158 81.6676597 70.5263158 106.62766 59.6267943 100.48"></polygon>
                        <path d="M18.9138756,24.5716804 L48.1685594,41.2950595 C49.0538006,41.787521 49.7714303,42.9030843 49.7714303,43.7867399 C49.7714303,44.6703955 49.0538006,44.987521 48.1685594,44.4950595 L18.9138756,27.7716804 C18.0286345,27.2792189 17.3110048,26.1636556 17.3110048,25.28 C17.3110048,24.3963444 18.0286345,24.0792189 18.9138756,24.5716804 Z" id="Rectangle-21" fill="#D0D3E0"></path>
                        <path d="M8.65550239,80.232023 L26.4952784,90.5929199 C27.3805195,91.0853814 28.0981492,92.2009447 28.0981492,93.0846003 C28.0981492,93.9682559 27.3805195,94.2853814 26.4952784,93.7929199 L8.65550239,83.432023 C7.77026129,82.9395615 7.05263158,81.8239982 7.05263158,80.9403426 C7.05263158,80.056687 7.77026129,79.7395615 8.65550239,80.232023 Z" id="Rectangle-21" fill="#D0D3E0"></path>
                        <path d="M50.9712919,104.552023 L68.8110679,114.91292 C69.696309,115.405381 70.4139387,116.520945 70.4139387,117.4046 C70.4139387,118.288256 69.696309,118.605381 68.8110679,118.11292 L50.9712919,107.752023 C50.0860508,107.259562 49.3684211,106.143998 49.3684211,105.260343 C49.3684211,104.376687 50.0860508,104.059562 50.9712919,104.552023 Z" id="Rectangle-21" fill="#D0D3E0"></path>
                        <path d="M92.0047847,107.112023 L109.844561,117.47292 C110.729802,117.965381 111.447431,119.080945 111.447431,119.9646 C111.447431,120.848256 110.729802,121.165381 109.844561,120.67292 L92.0047847,110.312023 C91.1195436,109.819562 90.4019139,108.703998 90.4019139,107.820343 C90.4019139,106.936687 91.1195436,106.619562 92.0047847,107.112023 Z" id="Rectangle-21" fill="#525975" opacity="0.246206975"></path>
                        <path d="M92.0047847,111.592023 L109.844561,121.95292 C110.729802,122.445381 111.447431,123.560945 111.447431,124.4446 C111.447431,125.328256 110.729802,125.645381 109.844561,125.15292 L92.0047847,114.792023 C91.1195436,114.299562 90.4019139,113.183998 90.4019139,112.300343 C90.4019139,111.416687 91.1195436,111.099562 92.0047847,111.592023 Z" id="Rectangle-21" fill="#D0D3E0" opacity="0.246206975"></path>
                        <path d="M92.0047847,87.272023 L109.844561,97.6329199 C110.729802,98.1253814 111.447431,99.2409447 111.447431,100.1246 C111.447431,101.008256 110.729802,101.325381 109.844561,100.83292 L92.0047847,90.472023 C91.1195436,89.9795615 90.4019139,88.8639982 90.4019139,87.9803426 C90.4019139,87.096687 91.1195436,86.7795615 92.0047847,87.272023 Z" id="Rectangle-21" fill="#525975" opacity="0.246206975"></path>
                        <path d="M92.0047847,91.752023 L109.844561,102.11292 C110.729802,102.605381 111.447431,103.720945 111.447431,104.6046 C111.447431,105.488256 110.729802,105.805381 109.844561,105.31292 L92.0047847,94.952023 C91.1195436,94.4595615 90.4019139,93.3439982 90.4019139,92.4603426 C90.4019139,91.576687 91.1195436,91.2595615 92.0047847,91.752023 Z" id="Rectangle-21" fill="#D0D3E0" opacity="0.246206975"></path>
                        <path d="M92.0047847,68.072023 L109.844561,78.4329199 C110.729802,78.9253814 111.447431,80.0409447 111.447431,80.9246003 C111.447431,81.8082559 110.729802,82.1253814 109.844561,81.6329199 L92.0047847,71.272023 C91.1195436,70.7795615 90.4019139,69.6639982 90.4019139,68.7803426 C90.4019139,67.896687 91.1195436,67.5795615 92.0047847,68.072023 Z" id="Rectangle-21" fill="#525975" opacity="0.246206975"></path>
                        <path d="M92.0047847,72.552023 L109.844561,82.9129199 C110.729802,83.4053814 111.447431,84.5209447 111.447431,85.4046003 C111.447431,86.2882559 110.729802,86.6053814 109.844561,86.1129199 L92.0047847,75.752023 C91.1195436,75.2595615 90.4019139,74.1439982 90.4019139,73.2603426 C90.4019139,72.376687 91.1195436,72.0595615 92.0047847,72.552023 Z" id="Rectangle-21" fill="#D0D3E0" opacity="0.246206975"></path>
                        <polygon id="Rectangle-17" fill="#D0D3E0" opacity="0.365319293" points="33.9808612 55.04 44.8803828 61.1876597 44.8803828 92.5476597 33.9808612 86.4"></polygon>
                    </g>
                    <path d="M230.5,107 L230.5,142" id="Line" stroke="#D0D3E0" stroke-width="2" opacity="0.325464221" stroke-linecap="round" stroke-dasharray="5,8"></path>
                    <path d="M134.272748,209 C185.484595,209 227,194.156545 227,175.846215 C227,157.535886 208.597465,108.752764 196.781579,119.539813 C184.965692,130.326862 127.823023,158.299096 106.210116,176.899622 C84.5972083,195.500148 83.0609007,209 134.272748,209 Z" id="Oval" fill="#F5F8FB" filter="url(#filter-4)" transform="translate(159.500000, 163.500000) rotate(28.000000) translate(-159.500000, -163.500000) "></path>
                    <g id="Group-5" transform="translate(279.000000, 95.000000)">
                        <path d="M6.76076555,0.742516752 L152.492823,77.9470847 C154.982068,79.4325798 157,82.6542712 157,85.1429339 L157,180.522526 C157,183.011188 154.982068,183.824417 152.492823,182.338921 L6.76076555,105.134353 C4.27152041,103.648858 2.25358852,100.427167 2.25358852,97.9385042 L2.25358852,2.5589124 C2.25358852,0.0702496898 4.27152041,-0.742978342 6.76076555,0.742516752 Z" id="Rectangle-41" fill="#D0D3E0" opacity="0.441576087"></path>
                        <path d="M4.50717703,2.24455757 L150.239234,78.6981051 C152.72848,80.1836002 154.746411,83.4052916 154.746411,85.8939544 L154.746411,181.273546 C154.746411,183.762209 152.72848,184.575437 150.239234,183.089942 L4.50717703,106.636394 C2.01793189,105.150899 0,101.929208 0,99.4405451 L0,4.06095322 C0,1.57229051 2.01793189,0.759062474 4.50717703,2.24455757 Z" id="Rectangle-41" fill="#FFFFFF"></path>
                        <path d="M116.811005,150.303397 L137.712832,161.385569 C138.750017,161.963458 139.590822,163.272537 139.590822,164.30948 C139.590822,165.346423 138.750017,165.71856 137.712832,165.140671 L116.811005,154.058499 C115.773819,153.480611 114.933014,152.171532 114.933014,151.134589 C114.933014,150.097646 115.773819,149.725509 116.811005,150.303397 Z" id="Rectangle-21" fill="#D0D3E0"></path>
                        <path d="M124.294756,148.19471 L138.705244,156.119904 C139.420318,156.533169 140,157.469331 140,158.21088 C140,158.952429 139.420318,159.218556 138.705244,158.80529 L124.294756,150.880096 C123.579682,150.466831 123,149.530669 123,148.78912 C123,148.047571 123.579682,147.781444 124.294756,148.19471 Z" id="Rectangle-21" fill="#D0D3E0" opacity="0.366055254"></path>
                        <polyline id="Path-9" stroke="#D0D3E0" stroke-width="1.51199999" points="10.4588735 75.2809484 34.1102196 72.5752135 40.7416469 83.6447467 54.692018 75.2809484 69.7387256 85.0311082 80.3262862 106.296417 94.8631827 99.3083013 108.305685 111.373918 141.322016 106.296417"></polyline>
                        <polyline id="Path-9" stroke="#D0D3E0" stroke-width="1.51199999" opacity="0.288439764" points="12.712462 62.5136014 34.1102196 57.5548053 40.7416469 68.6243385 58.4479989 64.7666626 68.2363332 107.56172 79.57509 121.316826 92.6095942 115.83075 106.803293 127.896367 138.317232 125.822948"></polyline>
                        <g id="Oval-5">
                            <use fill="#D0D3E0" fill-rule="evenodd" xlink:href="#path-5"></use>
                            <path stroke="#FFFFFF" stroke-width="1.05839998" d="M140.00578,93.9987827 C139.034181,93.415382 138.442092,91.7624305 138.442092,90.1340388 C138.442092,88.4418567 139.476771,87.3881583 140.746107,88.1503361 C141.753242,88.7550744 142.505277,90.4240581 142.505277,91.9382745 C142.505277,93.6183762 141.270491,94.7581839 140.00578,93.9987827 Z"></path>
                        </g>
                        <path d="M134.895345,90.9548445 C135.725093,91.4530704 136.593219,90.6912569 136.593219,89.3480306 C136.593219,88.0048044 135.920575,86.5120125 135.090827,86.0137865 C134.261079,85.5155606 133.588435,86.2005687 133.588435,87.5437949 C133.588435,88.8870212 134.065597,90.4566185 134.895345,90.9548445 Z" id="Oval-5" fill="#D0D3E0" opacity="0.323256341"></path>
                    </g>
                    <path d="M287.487535,215 C338.56697,215 352,209.497314 352,191.180307 C352,172.8633 310.442714,171.294814 261.638331,161.316068 C212.833949,151.337323 226.872262,165.360231 226.872262,183.677238 C226.872262,201.994246 236.4081,215 287.487535,215 Z" id="Oval" fill="#F5F8FB" filter="url(#filter-6)" transform="translate(288.500000, 186.500000) rotate(28.000000) translate(-288.500000, -186.500000) "></path>
                    <g id="Group-4" transform="translate(0.000000, 111.000000)">
                        <path d="M1.94766772,168.278777 C1.89113691,170.062653 2.69891799,171.469789 4.37101097,172.500187 C6.04310395,173.530585 71.4501614,211.489801 200.592183,286.377836 C203.91042,288.679462 207.376617,289.830275 210.990775,289.830275 C214.604934,289.830275 217.846425,288.679462 220.715249,286.377836 L396.785195,183.260725 C398.049723,182.334374 398.681987,181.368089 398.681987,180.36187 C398.681987,179.355651 398.681987,177.619562 398.681987,175.153605 L1.94489465,165.044435 L1.94766772,168.278777 Z" id="Path-6" fill="#D0D3E0"></path>
                        <g id="Rectangle-20">
                            <mask id="mask-9" fill="white">
                                <use xlink:href="#path-8"></use>
                            </mask>
                            <use id="Mask" fill="url(#linearGradient-7)" transform="translate(199.978369, 170.826569) rotate(-60.000000) translate(-199.978369, -170.826569) " xlink:href="#path-8"></use>
                            <polygon fill="#D4D7E3" opacity="0.147871377" mask="url(#mask-9)" transform="translate(66.639112, 174.847222) rotate(60.000000) translate(-66.639112, -174.847222) " points="48.6229555 147.819014 89.525481 130.581374 88.3641243 193.053349 43.7527427 219.113069"></polygon>
                            <polygon id="Path-2" fill="url(#linearGradient-10)" opacity="0.139549366" mask="url(#mask-9)" points="222.359291 241.176709 251.133777 257.776606 367.190374 190.543972 333.01743 175.42509"></polygon>
                        </g>
                        <polygon id="Rectangle-3" fill="url(#linearGradient-11)" points="128.563557 109.38239 64.1815235 109.86843 64.28916 149.364642 128.563557 185.598511"></polygon>
                        <polygon id="Rectangle-8" fill="#FFFFFF" points="59.643436 108.735157 62.2366288 109.911428 62.2366288 149.392646 59.643436 148.216375"></polygon>
                        <polygon id="Path-3" fill="#B7BAC8" points="127.58923 107.440691 51.8638574 107.440691 51.8638574 110.061482 127.58923 110.061482"></polygon>
                        <polygon id="Path-4" fill="url(#linearGradient-12)" points="51.8638574 107.643374 138.012473 57.8754197 199.55057 57.603744 127.634893 107.643374"></polygon>
                        <g id="Rectangle-3" transform="translate(126.418152, 96.437729)">
                            <mask id="mask-14" fill="white">
                                <use xlink:href="#path-13"></use>
                            </mask>
                            <use id="Mask" fill="#FFFFFF" xlink:href="#path-13"></use>
                            <polygon fill="url(#linearGradient-15)" mask="url(#mask-14)" points="32.4149109 21.3586916 95.9481361 68.2310968 95.9481361 144.6046 32.4149109 108.735157"></polygon>
                        </g>
                        <g id="Rectangle-10" transform="translate(68.719611, 110.676856)">
                            <mask id="mask-17" fill="white">
                                <use xlink:href="#path-16"></use>
                            </mask>
                            <use id="Mask" fill="#8C90A1" xlink:href="#path-16"></use>
                            <polygon fill="#D0D3E0" mask="url(#mask-17)" points="0 0.647233079 55.1053485 -26.1832116 55.1053485 14.5924724 0.0695763489 41.3337008"></polygon>
                            <polygon fill="#707380" mask="url(#mask-17)" points="0 0.647233079 1.73854259 -0.209182355 1.73854259 40.5665016 0.0695763489 41.3337008"></polygon>
                        </g>
                        <polygon id="Rectangle-9" fill="#EEF0F7" points="69.5590223 111.555735 110.818241 134.303595 110.818241 162.041514 69.5590223 139.293654"></polygon>
                        <polygon id="Rectangle-9" fill="#E6E7EF" points="69.5590223 137.445059 110.818241 160.192918 110.818241 162.041514 69.5590223 139.293654"></polygon>
                        <rect id="Rectangle-8" fill="#E8E9F0" x="62.2366288" y="110.029623" width="1.94489465" height="39.4812178"></rect>
                        <polygon id="Rectangle-5" fill="#E9EAF0" points="222.366288 165.705978 333.225284 111.32409 333.225284 175.400164 222.366288 241.432248"></polygon>
                        <polygon id="Rectangle-16" fill="#F9F9FB" points="245.056726 176.130239 281.382306 155.335939 281.382306 185.440396 245.056726 206.234696"></polygon>
                        <polygon id="Rectangle-16" fill="#FFFFFF" points="246.353323 176.347399 280.713128 156.630405 280.713128 185.755894 246.353323 205.472887"></polygon>
                        <polygon id="Rectangle-16" fill="#D8D8D8" points="246.353323 203.531188 280.713128 183.814194 280.713128 185.755894 246.353323 205.472887"></polygon>
                        <polygon id="Rectangle-16" fill="#707380" points="278.768233 157.793709 280.749996 156.630405 280.749996 185.755894 278.768233 184.977499"></polygon>
                        <polygon id="Rectangle-16" fill="#D8D8D8" points="246.353323 187.735714 278.703473 169.575067 279.882892 169.775631 246.353323 189.03018"></polygon>
                        <polygon id="Rectangle-16" fill="#B1B4C3" points="246.353323 188.760691 279.885891 169.575067 279.885891 172.115151 246.353323 191.300775"></polygon>
                        <polygon id="Rectangle-16" fill="#B1B4C3" points="245.056726 208.399801 281.391348 187.697593 281.391348 185.10866 245.056726 205.810869"></polygon>
                        <polygon id="Rectangle-16" fill="#F9F9FB" points="291.0859 150.240916 327.41148 129.446616 327.41148 159.551073 291.0859 180.345373"></polygon>
                        <polygon id="Rectangle-16" fill="#FFFFFF" points="292.382496 150.458076 326.742301 130.741082 326.742301 159.86657 292.382496 179.583564"></polygon>
                        <polygon id="Rectangle-16" fill="#D8D8D8" points="292.382496 177.641865 326.742301 157.924871 326.742301 159.86657 292.382496 179.583564"></polygon>
                        <polygon id="Rectangle-16" fill="#707380" points="324.797407 131.904386 326.779169 130.741082 326.779169 159.86657 324.797407 159.088176"></polygon>
                        <polygon id="Rectangle-16" fill="#D8D8D8" points="292.382496 161.846391 324.732647 143.685743 325.912065 143.886308 292.382496 163.140857"></polygon>
                        <polygon id="Rectangle-16" fill="#B1B4C3" points="292.382496 162.871368 325.915065 143.685743 325.915065 146.225828 292.382496 165.411452"></polygon>
                        <polygon id="Rectangle-16" fill="#B1B4C3" points="291.0859 182.510478 327.420522 161.80827 327.420522 159.219337 291.0859 179.921546"></polygon>
                        <polygon id="Rectangle-7" fill="url(#linearGradient-18)" transform="translate(231.040556, 103.645251) rotate(60.000000) translate(-231.040556, -103.645251) " points="169.844447 68.9273074 292.236665 13.8255675 292.236665 138.363195 169.844447 193.464935"></polygon>
                        <polygon id="Rectangle-7" fill="#EDEEF3" transform="translate(285.399272, 143.997002) rotate(60.000000) translate(-285.399272, -143.997002) " points="283.968402 81.1254453 286.830142 82.8087333 286.443465 206.868558 283.993888 205.503969"></polygon>
                        <polygon id="Rectangle-7" fill="#B1B4C3" transform="translate(177.142030, 136.173279) rotate(60.000000) translate(-177.142030, -136.173279) " points="117.816545 164.639785 239.575981 109.041399 237.100297 107.706773 114.708079 162.808513"></polygon>
                        <polygon id="Rectangle-11" fill="#D3D5E2" points="133.549433 141.744044 151.701783 152.40713 151.701783 195.771746 133.549433 185.10866"></polygon>
                        <polygon id="Rectangle-11" fill="#A5A7B0" points="135.494327 143.03851 151.701783 152.559123 151.701783 193.219229 135.494327 183.698617"></polygon>
                        <path d="M142.009268,174.185437 L146.483438,176.617565 C146.859134,176.800021 147.163695,177.237109 147.163695,177.593828 C147.163695,177.950546 146.859134,178.091814 146.483438,177.909357 L142.009268,175.47723 C141.633573,175.294774 141.329011,174.857686 141.329011,174.500967 C141.329011,174.144249 141.633573,174.002981 142.009268,174.185437 Z" id="Rectangle-13" fill="#FFFFFF" opacity="0.360394022"></path>
                        <polygon id="Rectangle-11" fill="#F2F3F6" points="133.549433 141.744044 136.142626 143.345867 136.094999 183.900013 133.549433 185.10866"></polygon>
                        <polygon id="Rectangle-12" fill="#D6D8E4" points="158.821657 203.158912 145.252455 211.59793 145.218801 208.460124 158.822254 199.995021"></polygon>
                        <polygon id="Rectangle-12" fill="#FFFFFF" points="126.43612 180.578029 158.839687 199.986884 145.250413 208.451008 111.507293 188.913938"></polygon>
                        <polygon id="Rectangle-18" fill="#FFFFFF" points="165.316045 146.921909 206.41181 170.023628 206.41181 211.446545 165.316045 188.344826"></polygon>
                        <polygon id="Rectangle-12" fill="#E4E5ED" points="111.507293 191.81672 111.507293 188.992059 145.248685 208.522902 145.260675 211.661186"></polygon>
                        <polygon id="Rectangle-12" fill="#E1E3EC" points="164.667747 190.5752 206.75973 214.701297 206.75973 211.562276 164.667747 187.569975"></polygon>
                        <polygon id="Rectangle-12" fill="#D3D5E2" points="164.713323 187.537728 204.885977 210.499728 206.683438 209.831696 165.176406 186.403127"></polygon>
                        <polygon id="Rectangle-14" fill="#707380" points="165.964344 148.863608 167.26094 149.510841 167.26094 187.697593 165.964344 188.263223"></polygon>
                        <polygon id="Rectangle-14" fill="#E8E9F0" points="164.667747 148.863608 165.964344 148.863608 165.964344 188.259296 164.667747 187.567133"></polygon>
                        <polygon id="Rectangle-15" fill="#E8E9F0" points="164.667747 146.274676 206.807131 170.2223 206.807131 172.811232 164.667747 148.863608"></polygon>
                        <polygon id="Rectangle-15" fill="#E8E9F0" points="166.612642 164.397202 204.871196 186.12348 204.871196 188.712413 166.612642 166.986134"></polygon>
                        <polygon id="Rectangle-15" fill="#D3D5E2" points="167.243345 164.397202 204.871196 185.476247 204.871196 186.12348 166.612642 164.397202"></polygon>
                        <polygon id="Rectangle-14" fill="#E8E9F0" points="204.862237 171.516766 206.807131 172.628922 206.807131 211.617298 204.862237 210.505142"></polygon>
                        <path d="" id="Path-5" stroke="#979797" stroke-width="0.647999975"></path>
                        <g id="Oval-5" transform="translate(138.735818, 123.621518)">
                            <mask id="mask-20" fill="white">
                                <use xlink:href="#path-19"></use>
                            </mask>
                            <use id="Mask" fill="#B1B4C3" xlink:href="#path-19"></use>
                            <path d="M5.6370785,13.1862549 C8.03426055,14.4290287 9.97756057,12.7203459 9.97756057,9.3698049 C9.97756057,6.01926394 8.03426055,2.29564661 5.6370785,1.0528728 C3.23989645,-0.189901002 1.29659643,1.51878188 1.29659643,4.86932283 C1.29659643,8.21986379 3.23989645,11.9434811 5.6370785,13.1862549 Z" fill="#FFFFFF" mask="url(#mask-20)"></path>
                        </g>
                    </g>
                    <g id="Group-3" transform="translate(169.000000, 0.000000)">
                        <g id="Group-2">
                            <path d="M8.57823057,0.67417551 L146.960932,77.5949511 C149.490699,78.754714 151.54148,81.7514621 151.54148,84.2883754 L151.078779,136.417209 C151.078779,138.954122 150.738618,141.909146 144.243486,140.993423 L70.8629989,99.4994425 L63.6588845,106.409883 C63.1620743,106.772091 62.5131323,106.772091 61.7120585,106.409883 L59.3123205,92.5719136 L8.57823057,63.0243713 C6.04846351,61.8646085 3.99768211,58.8678603 3.99768211,56.330947 L1.13885515,2.92460239 C1.13885515,0.387689097 6.04846351,-0.485587372 8.57823057,0.67417551 Z" id="Rectangle-28" fill="#1B74C9"></path>
                            <path d="M5.37823057,1.4764354 L143.760932,78.397211 C146.290699,79.5569739 148.34148,82.553722 148.34148,85.0906353 L148.34148,138.253855 C148.34148,140.790769 146.290699,141.90717 143.760932,140.747407 L68.5812038,99.8710528 L61.6877718,106.432374 L56.1123205,93.3741735 L5.37823057,63.8266312 C2.84846351,62.6668683 0.79768211,59.6701202 0.79768211,57.1332069 L0.79768211,3.9699868 C0.79768211,1.43307351 2.84846351,0.316672515 5.37823057,1.4764354 Z" id="Rectangle-28" fill="#1C85E8"></path>
                        </g>
                        <path d="M14.257342,27.6948202 L15.3715864,27.1794781 L15.3715864,31.3922128 C15.3715864,31.9417046 15.7144077,32.5157328 16.2286898,32.8273673 C16.7429719,33.1390017 17.0857932,32.9804457 17.0857932,32.4309538 L17.0857932,26.386544 L18.8002009,25.5937316 L20.5145081,28.4642086 L20.5145081,34.5086185 C20.5145081,35.0581103 20.8573294,35.6321384 21.3716115,35.9437729 C21.8858937,36.2554074 22.2287149,36.0968513 22.2287149,35.5473595 L22.2287149,31.3346247 L23.3429594,33.2003423 C23.5144202,33.4874404 23.6857807,33.6828242 23.9429217,33.8386414 C24.2000628,33.9944587 24.3715236,34.0068109 24.542884,33.9274488 C24.8857053,33.7688927 24.8857053,33.2194009 24.542884,32.6452655 L19.3999623,24.0338344 C19.0571411,23.4598063 18.5428589,23.1481718 18.1999372,23.306667 L13.057116,25.6852404 C12.7142947,25.8437964 12.7142947,26.3932882 13.057116,26.9674237 C13.3999372,27.5415591 13.9145207,27.8533762 14.257342,27.6948202 Z" id="Shape" fill="#FFFFFF"></path>
                        <path d="M17.2218182,57.1756388 L17.2218182,55.2277074 C14.7345455,53.5438394 13.7454545,51.4484061 13.6,49.4901507 L15.4036364,50.576674 C15.52,51.6516575 15.84,52.6947153 17.2218182,53.7126496 L17.2218182,50.2342007 C15.0690909,48.5508882 13.9490909,47.0413646 13.9490909,45.0779734 C13.9490909,43.3619386 15.2436364,42.8586208 17.2218182,43.9111536 L17.2218182,42.519774 L18.1963636,43.1068471 L18.1963636,44.5136864 C20.0727273,45.8295385 21.2363636,47.566326 21.4109091,49.5884853 L19.6945455,48.5545357 C19.5345455,47.5151044 19.0836364,46.7023815 18.1963636,46.0132844 L18.1963636,49.1825379 C20.3490909,50.8503906 21.6,52.3769357 21.6,54.4640051 C21.6,56.2727985 20.3345455,56.9482386 18.1963636,55.8147805 L18.1963636,57.7627119 L17.2218182,57.1756388 Z M19.8109091,53.5717613 C19.8109091,52.6905543 19.4618182,52.0473858 18.1963636,50.9913313 L18.1963636,54.2997227 C19.1709091,54.7476578 19.8109091,54.4838879 19.8109091,53.5717613 Z M15.6654545,45.9418655 C15.6654545,46.7457737 15.9418182,47.3760503 17.2218182,48.4254073 L17.2218182,45.379832 C16.2181818,44.8989125 15.6654545,45.1688769 15.6654545,45.9418655 Z" id="$" fill="#FFFFFF"></path>
                        <path d="M32.1954524,53.6815764 L61.4045476,70.1944289 C64.1634598,71.7489753 66.4,75.2704586 66.4,78.059882 C66.4,80.8493054 64.1634598,81.8503711 61.4045476,80.2958247 L32.1954524,63.7829722 C29.4365402,62.2284259 27.2,58.7069425 27.2,55.9175191 C27.2,53.1280957 29.4365402,52.1270301 32.1954524,53.6815764 Z" id="Rectangle-21" fill="#FFFFFF" opacity="0.530344203"></path>
                        <path d="M32.9638864,33.5003741 L118.929396,82.6247499 C121.229047,83.9146135 123.093282,86.8365161 123.093282,89.151002 C123.093282,91.4654879 121.229047,92.2961084 118.929396,91.0062448 L32.9638864,41.8818689 C30.6642354,40.5920054 28.8,37.6701028 28.8,35.3556169 C28.8,33.041131 30.6642354,32.2105105 32.9638864,33.5003741 Z" id="Rectangle-21" fill="#FFFFFF"></path>
                        <path d="M80.3415853,82.0968186 L118.204548,103.087084 C120.96346,104.641631 123.2,108.163114 123.2,110.952537 C123.2,113.741961 120.96346,114.743026 118.204548,113.18848 L80.3415853,92.1982144 C77.5826732,90.6436681 75.346133,87.1221847 75.346133,84.3327613 C75.346133,81.5433379 77.5826732,80.5422723 80.3415853,82.0968186 Z" id="Rectangle-21" fill="#FFFFFF" opacity="0.530344203"></path>
                    </g>
                </g>
            </g>
        </g>
    </g>
</svg>