<?xml version="1.0" encoding="UTF-8"?>
<svg width="264px" height="151px" viewBox="0 0 264 151" version="1.1" xmlns="http://www.w3.org/2000/svg" xmlns:xlink="http://www.w3.org/1999/xlink">
    <!-- Generator: Sketch 49.2 (51160) - http://www.bohemiancoding.com/sketch -->
    <title>Group 8</title>
    <desc>Created with Sketch.</desc>
    <defs>
        <path d="M153.084619,4.03450275 L260.0601,64.2847691 C265.029221,67.1278365 266.449043,75.3567224 257.425428,80.3062652 L141.628316,144.33909 C132.604701,149.288633 112.445623,148.643376 107.476501,145.800308 L4.38594537,85.9171858 C-0.583175965,83.0741184 -2.91021217,74.7090128 6.11340289,69.7594699 L125.168152,5.544387 C137.787772,-1.20349249 143.109862,-1.89409801 153.084619,4.03450275 Z" id="path-1"></path>
    </defs>
    <g id="Page-1" stroke="none" stroke-width="1" fill="none" fill-rule="evenodd">
        <g id="Home-value---concept-2-+-feedback-Copy-3" transform="translate(-238.000000, -819.000000)">
            <g id="Group-8" transform="translate(238.000000, 819.000000)">
                <path d="M264,71 C264,76.6382614 263.917574,79.5298673 257.499275,82.8178806 L141.653859,147.312678 C132.62648,152.29793 112.458992,151.648018 107.487798,148.784439 L4.35423884,88.4692818 C-0.616955317,85.6057027 0.0272974354,80.7675465 0.0272974354,77.9274171 L264,71 Z" id="Rectangle-3" fill="#D0D3E0"></path>
                <g id="Rectangle-3">
                    <use fill="#FFFFFF" fill-rule="evenodd" xlink:href="#path-1"></use>
                    <path stroke="#D0D3E0" stroke-width="1" d="M152.839251,4.47015723 L152.829155,4.4643149 C143.277454,-1.21283857 138.242201,-0.879490119 125.405513,5.98445475 L6.3538606,70.1978534 C-1.27156597,74.3804759 -1.08004296,82.2137836 4.63708868,85.4848352 L107.724806,145.366321 C113.346127,148.582543 133.401632,148.281231 141.386358,143.901533 L257.184971,79.8678818 C264.933946,75.6174917 265.321995,67.8713997 259.814732,64.7204236 L152.839251,4.47015723 Z"></path>
                </g>
                <path d="M57,67.0325632 L104.25433,64 L112.008275,79.0631625 L154.260648,67.0325632 L164.713562,82.6970839 L195,88" id="Path-17" stroke="#D0D3E0" stroke-width="3" stroke-linecap="round" stroke-dasharray="7,8"></path>
                <polyline id="Path-18" stroke="#1C85E8" stroke-width="3" stroke-linecap="round" points="86 52.3701508 130.091802 47.0089207 144.656239 42 162.710443 57.8505194 196.604257 68.0964258 231 71"></polyline>
                <path d="M33.0816203,75.2724992 L51.5121279,86.0240489 C51.9649981,86.2845681 52.3345119,86.9851856 51.5121279,87.4387277 L48.8919576,88.7908748 C48.0695735,89.244417 46.777015,88.8572151 46.3241448,88.5966959 L28.4878721,77.8297935 C28.0350019,77.5692743 27.6654881,77.1410333 28.4878721,76.6874912 L30.8941094,75.2724992 C31.7164934,74.818957 32.6287501,75.01198 33.0816203,75.2724992 Z" id="Rectangle-3" fill="#D0D3E0"></path>
                <path d="M39.4610878,71.2254151 L126.593452,120.808102 C126.970833,121.023607 127.278751,121.603167 126.593452,121.978344 L125.18351,122.827009 C124.498211,123.202185 123.421112,122.881886 123.043732,122.666381 L36.4065476,73.0709945 C36.0291674,72.8554894 35.7212486,72.5012425 36.4065476,72.1260662 L37.6382181,71.2254151 C38.3235171,70.8502388 39.0837076,71.00991 39.4610878,71.2254151 Z" id="Rectangle-3" fill="#D0D3E0" opacity="0.368432971"></path>
            </g>
        </g>
    </g>
</svg>