<?xml version="1.0" encoding="UTF-8" standalone="no"?>
<svg width="30px" height="30px" viewBox="0 0 30 30" version="1.1" xmlns="http://www.w3.org/2000/svg" xmlns:xlink="http://www.w3.org/1999/xlink">
    <!-- Generator: Sketch 41.2 (35397) - http://www.bohemiancoding.com/sketch -->
    <title>Facebook</title>
    <desc>Created with Sketch.</desc>
    <defs></defs>
    <g id="Page-1" stroke="none" stroke-width="1" fill="none" fill-rule="evenodd">
        <g id="Facebook" fill="#000000">
            <path d="M16.6314615,11.0915595 L16.6314615,9.22674203 C16.6314615,8.94679631 16.6441879,8.72996027 16.6700498,8.5767859 C16.6958208,8.42338153 16.7544532,8.27250707 16.845447,8.12356454 C16.9363045,7.97471401 17.083431,7.87195379 17.2865991,7.81500788 C17.4900399,7.75796997 17.7603853,7.72954302 18.0979079,7.72954302 L19.9404654,7.72954302 L19.9404654,4 L16.9948006,4 C15.2903702,4 14.0662255,4.40924697 13.3221848,5.22774091 C12.5782351,6.04641884 12.2063056,7.25231054 12.2063056,8.84587601 L12.2063056,11.0915135 L10,11.0915135 L10,14.8213325 L12.2061693,14.8213325 L12.2061693,25.6427111 L16.631416,25.6427111 L16.631416,14.8213785 L19.576899,14.8213785 L19.9662364,11.0915595 L16.6314615,11.0915595 L16.6314615,11.0915595 Z" id="Shape"></path>
        </g>
    </g>
</svg>