<?xml version="1.0" encoding="UTF-8" standalone="no"?>
<svg width="30px" height="30px" viewBox="0 0 30 30" version="1.1" xmlns="http://www.w3.org/2000/svg" xmlns:xlink="http://www.w3.org/1999/xlink">
    <!-- Generator: Sketch 41.2 (35397) - http://www.bohemiancoding.com/sketch -->
    <title>Linkedin</title>
    <desc>Created with Sketch.</desc>
    <defs></defs>
    <g id="Page-1" stroke="none" stroke-width="1" fill="none" fill-rule="evenodd">
        <g id="Linkedin" fill="#000000">
            <g id="Group" transform="translate(5.000000, 5.000000)">
                <rect id="Rectangle-path" x="0.247107062" y="6.19286905" width="4.29230068" height="12.7993048"></rect>
                <path d="M18.6260592,7.36200238 C17.7244191,6.38467857 16.5318907,5.89592619 15.0492027,5.89592619 C14.5029157,5.89592619 14.0063326,5.96265238 13.5596811,6.09619524 C13.1131663,6.22964762 12.7360364,6.4168881 12.4281093,6.65800714 C12.1203645,6.89912619 11.875262,7.12296429 11.693303,7.32952143 C11.5202733,7.52571905 11.3510706,7.7542619 11.1859681,8.01279762 L11.1859681,6.19277857 L6.90646925,6.19277857 L6.91958998,6.8128119 C6.92838269,7.22624286 6.93271071,8.50050952 6.93271071,10.6357929 C6.93271071,12.7712571 6.92405467,15.5566571 6.90665148,18.9922643 L11.1859681,18.9922643 L11.1859681,11.8497571 C11.1859681,11.4107214 11.2333941,11.0620714 11.3289749,10.8035357 C11.5112073,10.3641833 11.7862415,9.99635238 12.1549886,9.69940952 C12.5236902,9.40210476 12.9809567,9.2535881 13.527426,9.2535881 C14.2729385,9.2535881 14.8215945,9.50972619 15.1728474,10.0220476 C15.5239636,10.5343238 15.6995444,11.2425714 15.6995444,12.1467 L15.6995444,18.9918571 L19.978861,18.9918571 L19.978861,11.6562286 C19.9785421,9.77034286 19.5279727,8.33900952 18.6260592,7.36200238 Z" id="Shape"></path>
                <path d="M2.41927107,0.0320285714 C1.69963554,0.0320285714 1.11653759,0.240983333 0.669840547,0.658485714 C0.223189066,1.07607857 0,1.60328333 0,2.24059762 C0,2.869 0.216765376,3.39439524 0.650341686,3.81619524 C1.08378132,4.23804048 1.65617312,4.44907619 2.36719818,4.44907619 L2.39321185,4.44907619 C3.12168565,4.44907619 3.70924829,4.23822143 4.1557631,3.81619524 C4.6022779,3.39439524 4.82118451,2.86918095 4.81257403,2.24059762 C4.803918,1.60332857 4.58264237,1.07607857 4.14920273,0.658485714 C3.71580866,0.240802381 3.13895216,0.0320285714 2.41927107,0.0320285714 Z" id="Shape"></path>
            </g>
        </g>
    </g>
</svg>