<?xml version="1.0" encoding="UTF-8" standalone="no"?>
<svg width="30px" height="30px" viewBox="0 0 30 30" version="1.1" xmlns="http://www.w3.org/2000/svg" xmlns:xlink="http://www.w3.org/1999/xlink">
    <!-- Generator: Sketch 41.2 (35397) - http://www.bohemiancoding.com/sketch -->
    <title>Twitter</title>
    <desc>Created with Sketch.</desc>
    <defs></defs>
    <g id="Page-1" stroke="none" stroke-width="1" fill="none" fill-rule="evenodd">
        <g id="Twitter" fill="#000000">
            <path d="M26.9999493,7.28863676 C26.1168279,7.67680591 25.167988,7.93919413 24.1719921,8.05716893 C25.1885192,7.45312309 25.969266,6.49663973 26.336952,5.3568517 C25.3854403,5.91624461 24.3317883,6.32239574 23.2101678,6.54124619 C22.3120465,5.5926619 21.0323173,5 19.6160887,5 C16.8968341,5 14.692265,7.18520552 14.692265,9.88064392 C14.692265,10.2631908 14.7358117,10.6357012 14.8197645,10.9929711 C10.7275936,10.7893612 7.09943646,8.84628512 4.67094633,5.89329087 C4.24710431,6.61414988 4.00424592,7.45256551 4.00424592,8.34706446 C4.00424592,10.0404373 4.87349238,11.534382 6.19470576,12.4096445 C5.38756842,12.3842745 4.62833713,12.1647271 3.96454295,11.79914 C3.96407421,11.8194917 3.96407421,11.8399363 3.96407421,11.8605203 C3.96407421,14.2253133 5.66136418,16.1979412 7.91379253,16.646422 C7.50068483,16.7578917 7.06563972,16.8177387 6.61657905,16.8177387 C6.29928346,16.8177387 5.99084722,16.7870717 5.69014531,16.7300126 C6.31676777,18.6689998 8.13513538,20.0803297 10.2897829,20.1195926 C8.60463347,21.4287923 6.48153272,22.2089872 4.17458898,22.2089872 C3.77713747,22.2089872 3.38521718,22.1859405 3,22.1406371 C5.17902239,23.5256213 7.767215,24.3336487 10.5478287,24.3336487 C19.6045575,24.3336487 24.5572092,16.8963576 24.5572092,10.4465419 C24.5572092,10.23494 24.5523343,10.0244533 24.5429124,9.81508172 C25.5050648,9.12698057 26.3398583,8.26737688 26.9999493,7.28863676 Z" id="Shape"></path>
        </g>
    </g>
</svg>